<?xml version="1.0" encoding="UTF-8"?>
<svg id="Layer_1" xmlns="http://www.w3.org/2000/svg" version="1.1" xmlns:xlink="http://www.w3.org/1999/xlink" viewBox="0 0 250 250">
  <!-- Generator: Adobe Illustrator 30.6.0, SVG Export Plug-In . SVG Version: 2.1.4 Build 27)  -->
  <defs>
    <style>
      .st0 {
        fill: #fff;
      }

      .st1 {
        fill: #c8ff00;
      }

      .st2 {
        display: none;
        fill: url(#linear-gradient1);
      }

      .st3 {
        fill: url(#linear-gradient);
      }
    </style>
    <linearGradient id="linear-gradient" x1="161.2" y1="83.3" x2="200.1" y2="48.2" gradientUnits="userSpaceOnUse">
      <stop offset="0" stop-color="#000" stop-opacity="0"/>
      <stop offset="1" stop-color="#000"/>
    </linearGradient>
    <linearGradient id="linear-gradient1" x1="161.7" y1="81.5" x2="200.7" y2="48.6" gradientUnits="userSpaceOnUse">
      <stop offset="0" stop-color="#000" stop-opacity="0"/>
      <stop offset="1" stop-color="#000"/>
    </linearGradient>
  </defs>
  <rect width="250" height="250" rx="19.2" ry="19.2"/>
  <g>
    <path class="st0" d="M56,209.4V40.7h99.4v61.5c0,13.1-4.5,25.2-13.7,32.7h13.7v28.7c0,28.1-16.4,45.7-45.6,45.7h-53.8ZM97.9,123.4h7.1c4.2,0,7.5-3.3,7.5-7.5v-45.2h-14.6s0,52.8,0,52.8ZM112.5,171.7v-19h-14.6v26.5h7.1c4.2,0,7.5-3.3,7.5-7.5Z"/>
    <g>
      <circle class="st1" cx="184.8" cy="62.1" r="21.3"/>
      <path class="st3" d="M200.1,46.7c-4.1-4.1-9.5-6.4-15.3-6.4s-11.2,2.3-15.3,6.4c-4.1,4.1-6.4,9.5-6.4,15.3s2.3,11.2,6.4,15.3c4.1,4.1,9.5,6.4,15.3,6.4s11.2-2.3,15.3-6.4c4.1-4.1,6.4-9.5,6.4-15.3s-2.3-11.2-6.4-15.3ZM203.8,69c-.1.4-.3.8-.5,1.2,0-.1,0-.3,0-.3.2-.2.4-.5.5-.8ZM164.8,59.3c.5-3.9,2.2-7.5,4.7-10.5.1,1.4.4,2.8.5,3.5-1.7,1.6-3.8,5.6-4.7,7.4l-.5-.4ZM164.6,61.1l.3.2c.5,3.4,1.4,7.7,3,9.8-.1.5-.2,1.1-.2,1.9-2.1-3.2-3.2-7-3.2-10.8s0-.7,0-1ZM186.8,46.4c0,.2,0,.4.1.6-2.2,1.1-6.5,4.2-7.8,5.3-1.9-.5-3.5-.7-5.1-.7s-1,0-1.4,0c-.5,0-.9,0-1.2.1-.2-1-.5-2.9-.5-4.3,2.8-2.7,6.3-4.5,10.1-5.2,2.5.2,4.3.8,5,1.1h0c.2.7.6,1.8.9,3.1ZM182.6,79.1c-2.2-2-4-5.4-4.6-6.4,1.5-1.9,3.5-5.1,4.9-7.3l.5-.8c3.4.5,8.7,0,10.6-.3.1.2.3.4.5.7.4.6.9,1.3,1.3,2,.6,1.3,1,2.4,1.4,3.5h0c.1.5.2.8.4,1.1-.9,2-3.9,5.6-5,6.8-3.1,1-7.5.9-10,.7ZM194,62.8c-1.3.2-7.2.9-10.5.3-1.1-2.2-3.3-7.4-3.5-9.8,1.4-1.1,6-4.4,7.8-5.2,1.2.6,5.6,2.8,8,5.2,0,1.9-.5,7.2-1.7,9.4ZM197.1,66.3c-.4-.8-.9-1.5-1.4-2.2-.2-.2-.3-.4-.4-.6,1.4-2.6,1.8-8,1.9-9.7,1.9-.5,3.5-.6,4.3-.4,1.4,1.3,2.4,3.9,2.9,5.3.1.7.3,1.4.3,2.1,0,.7,0,1.1-.4,2.7-.3,1.3-1.2,3.9-2.2,5.3-.8.8-2.5,1.5-3.4,1.8,0-.2-.1-.4-.2-.6-.3-1-.8-2.3-1.5-3.7ZM172.7,53c1.2,0,3-.1,5.8.6.4,3.2,3.1,9,3.7,10.2l-.5.8c-1.4,2.2-3.5,5.5-4.9,7.3-2.1.2-6.5-1.2-7.6-1.5-1.2-1.3-2.2-4.7-2.9-9.5.8-1.9,3.4-6.6,4.8-7.7.3,0,.9-.1,1.5-.2ZM203,70.4s0,0,0,0h.2s0,0,0,0h-.2ZM196.9,52.4c-2.6-2.6-7.2-5-8.5-5.7,0-.3,0-.5-.2-.7-.2-1-.4-2-.7-3,.7-.2,1.6-.5,2.4-.6,4.4,1.1,8.4,3.8,11.1,7.5.2.6.2,1.3.2,2-1.1-.1-2.5,0-4.3.5ZM186.4,41.9s0,0,0,0c0,0,0,0,0,0,0,0,0,0,0,0ZM169.2,71.9c1.8.6,5.4,1.6,7.6,1.5.7,1.2,2.4,4.4,4.6,6.5-.6.4-1.6,1.1-2.7,1.4-3.5-1.1-6.6-3.2-9-6-.3-1.4-.4-2.6-.3-3.4ZM182.8,80.6c2.8.2,6.6.2,9.7-.6.2.2.5.3.7.5-2.6,1.2-5.5,1.8-8.4,1.8s-2.6-.1-3.9-.4c.9-.5,1.6-1.1,2-1.3ZM194.8,79.6c-.3-.2-.6-.3-.9-.5,1.4-1.7,4.2-5,5.1-7.1.7-.2,2-.7,3-1.3.1.4.2,1,.2,1.6-1.8,3-4.4,5.6-7.4,7.3ZM203,70.4h0,0s0,0,0,0Z"/>
      <path class="st2" d="M199.9,47c-4-4-9.4-6.2-15.1-6.2s-11,2.2-15.1,6.2c-4,4-6.2,9.4-6.2,15.1s2.2,11,6.2,15.1c4,4,9.4,6.2,15.1,6.2s11-2.2,15.1-6.2c4-4,6.2-9.4,6.2-15.1s-2.2-11-6.2-15.1ZM203,70.4c0-.3-.1-.6-.1-.8h0s0,0,0,0,0,0,0,0c1-1.4,1.9-3.8,2.3-5.3-.3,2.5-1,4.9-2.1,7.1,0-.3-.1-.7-.2-.9h0ZM179.1,52.6c-2.2-.6-3.9-.7-5.2-.7s-.9,0-1.3,0c-.6,0-1.2.1-1.6.2-.2-.9-.5-3.2-.6-4.9,2.8-2.7,6.4-4.7,10.4-5.4,2.9.2,4.8,1,5.3,1.2,0,0,0,.1,0,.2.3.8.6,1.9.9,3.1,0,.3.1.6.2.9-2.2,1-7.2,4.7-8.2,5.5h0ZM187.8,47.7c1.1.5,5.8,2.9,8.4,5.5,0,0,0,0,0,0,0,1.4-.5,7.5-1.9,9.9-.9.1-7.4,1-11,.3-.9-1.9-3.5-7.8-3.7-10.3,1.2-.9,6.3-4.7,8.2-5.4h0ZM171,52.9c.4,0,1-.2,1.6-.2,1.3-.1,3.2-.1,6.2.6.2,2.9,3,8.9,3.7,10.5-.2.3-.4.6-.6,1-1.4,2.3-3.6,5.7-5,7.5-2.2.3-6.9-1.2-8-1.6-1.2-1.3-2.4-4.9-3.1-9.8.7-1.5,3.4-6.8,5.1-8h0ZM182.6,65.1c.2-.4.4-.7.6-1,3.6.6,9.6,0,11-.3.2.3.4.6.6.9.4.6.9,1.3,1.3,2,.6,1.3,1.1,2.5,1.4,3.5.1.4.3.9.4,1.2-.8,2-4.1,5.9-5.2,7.2-3.2,1.1-7.8.9-10.3.7-2.4-2.2-4.4-5.9-4.8-6.8,1.5-1.9,3.6-5.2,5-7.5h0ZM196.7,66.5c-.4-.8-.9-1.5-1.3-2.1-.2-.3-.4-.6-.5-.8,1.5-2.6,1.9-8.6,2-10,1.4-.4,3.6-.8,4.9-.4,1.5,1.3,2.6,4,3.1,5.5.2.7.3,1.4.3,2.2,0,.7,0,1.1-.4,2.8-.3,1.3-1.2,4-2.3,5.4-1,1-3.2,1.8-3.9,1.9-.1-.3-.2-.6-.3-1-.4-1.1-.8-2.3-1.4-3.6h0ZM202.3,51.2c.9,1.4,1.6,2.9,2.1,4.5-.6-1.2-1.3-2.3-2.1-3.1,0-.5,0-1,0-1.5h0ZM201.3,49.8c.2.8.3,1.7.2,2.6-1.3-.3-3.2,0-4.8.5-2.6-2.8-7.7-5.3-8.8-5.8,0-.3-.1-.6-.2-.9-.2-1.1-.5-2.2-.8-3.3.8-.3,2-.6,2.9-.8,4.7,1.2,8.7,4,11.5,7.7h0ZM188.2,41.7c-.7.2-1.3.4-1.8.6h0c-.5-.2-1.5-.6-2.8-.8.4,0,.8,0,1.2,0,1.2,0,2.3,0,3.4.3h0ZM169.8,48c0,1.7.4,3.8.6,4.5-1.9,1.6-4.3,6.5-5,7.8l-1.1-.8c.6-4.4,2.5-8.4,5.4-11.5h0ZM164.3,60.3l1,.8c.4,3,1.4,7.9,3.1,9.9-.3.9-.2,2.2,0,3.4-2.6-3.4-4.1-7.7-4.1-12.3s0-1.2,0-1.7h0ZM169.2,75.5c-.3-1.3-.6-3.1-.3-4.1,1.6.5,5.8,1.8,8.1,1.6.5,1,2.5,4.7,4.9,7-.6.5-1.9,1.4-3.3,1.8-3.7-1.2-6.9-3.3-9.4-6.2h0ZM179.7,82c1.5-.6,2.7-1.6,3-1.9,2.5.2,6.7.3,9.9-.7.4.3.9.7,1.4.9-2.8,1.4-5.9,2.2-9.2,2.2s-3.4-.2-5-.6h0ZM194.8,80.1c-.5-.2-1-.5-1.5-.9,1.4-1.6,4.5-5.4,5.3-7.4.6-.2,2.3-.8,3.6-1.6,0,.1,0,.3,0,.4.1.5.3,1.2.2,1.9-1.9,3.2-4.5,5.8-7.8,7.6h0Z"/>
    </g>
  </g>
</svg>