<svg xmlns="http://www.w3.org/2000/svg" version="1.1" viewBox="-5.0 -10.0 110.0 135.0">
 <path d="m82.984 16.977c-8.8203-8.8203-20.547-13.68-33.023-13.68-12.473 0-24.203 4.8594-33.023 13.68-8.8203 8.8203-13.68 20.547-13.68 33.023 0 12.473 4.8594 24.203 13.68 33.023 8.8203 8.8203 20.547 13.68 33.023 13.68 12.473 0 24.203-4.8594 33.023-13.68 8.8203-8.8203 13.68-20.547 13.68-33.023 0-12.473-4.8594-24.203-13.68-33.023zm6.9062 51.254c-0.15625-0.67969-0.30469-1.3203-0.27344-1.6484h-0.007813c0.027344-0.027343 0.054687-0.050781 0.082031-0.078125 0.03125-0.03125 0.0625-0.0625 0.085938-0.097656 2.2969-3.0391 4.2148-8.4258 5.0742-11.695-0.57812 5.5391-2.1602 10.781-4.5625 15.543-0.11328-0.75781-0.26953-1.4414-0.40234-2.0234zm-52.332-38.965c-4.9219-1.2422-8.5508-1.5703-11.324-1.5703-1.1055 0-2.0781 0.050782-2.9453 0.12109-1.2812 0.10156-2.5273 0.27344-3.4688 0.4375-0.35156-2.0039-1.1797-7.0703-1.2227-10.68 6.1875-5.9844 14.074-10.223 22.863-11.902 6.2695 0.50391 10.602 2.1094 11.602 2.5859 0.035156 0.11328 0.074219 0.22656 0.11328 0.34766 0.55859 1.6914 1.3359 4.0547 1.9492 6.8125 0.12891 0.62891 0.24609 1.2578 0.35156 1.8828-4.8086 2.1016-15.754 10.293-17.918 11.969zm18.973-10.711c2.4648 1.1953 12.797 6.3906 18.305 12.062-0.011719 0.046874-0.015626 0.097656-0.019532 0.15234-0.070312 3.0938-1.0195 16.352-4.0742 21.605-1.9258 0.26172-16.266 2.1367-24.121 0.63672-2.0664-4.2109-7.6992-16.988-8.0273-22.57 2.625-2.0508 13.863-10.355 17.938-11.883zm-36.723 11.289c0.92578-0.16797 2.2422-0.36328 3.6055-0.46875 2.8906-0.22656 7.043-0.27344 13.637 1.375 0.49609 6.3125 6.4922 19.492 8.2031 23.008-0.41406 0.65234-0.87891 1.3828-1.375 2.1719-3.1406 4.9688-7.8594 12.438-11.047 16.391-4.8789 0.68359-15.023-2.5938-17.453-3.4141-2.7188-2.8438-5.1562-10.68-6.7188-21.582 1.4414-3.2266 7.4922-14.969 11.152-17.484zm25.391 26.922c0.5-0.78906 0.96094-1.5195 1.3789-2.1758 7.8242 1.4062 20.953-0.20703 24.062-0.625 0.35547 0.57812 0.80469 1.2188 1.3086 1.9414 0.9375 1.3359 1.9961 2.8516 2.8242 4.4727 1.4219 2.7852 2.3086 5.3984 3.0898 7.7031 0.32422 0.95703 0.63281 1.8672 0.95703 2.7227-1.8008 4.4414-8.9219 12.906-11.32 15.688-7.0273 2.4141-17.094 2.0586-22.676 1.6016-5.1914-4.7305-9.582-12.973-10.613-14.996 3.2383-4.0703 7.8828-11.418 10.988-16.332zm30.965 2.8984c-0.875-1.7188-1.9688-3.2812-2.9336-4.6602-0.45703-0.65234-0.86719-1.2422-1.1914-1.7539 3.332-5.6133 4.1719-18.898 4.3164-21.859 3.0391-0.78516 7.9414-1.7812 10.688-0.92188 3.3398 2.8242 5.6758 8.7617 6.7812 12.098 0.33594 1.5586 0.57422 3.1719 0.70312 4.7891-0.089844 1.5469-0.15234 2.5195-0.98047 6.125-0.67969 2.9531-2.625 8.7812-4.9766 11.93-2.25 2.0898-6.9648 3.8398-8.5078 4.2539-0.23828-0.66406-0.47656-1.3633-0.72656-2.0938-0.79688-2.3555-1.7031-5.0234-3.1758-7.9102zm12.148-33.441c1.9219 3.0938 3.4844 6.4336 4.6211 9.9609-1.2266-2.5273-2.8047-5.0703-4.7109-6.7539 0.12109-1.1016 0.14844-2.1719 0.089844-3.207zm-2.1016-3.0898c0.50781 1.7383 0.67969 3.6289 0.50781 5.6484-2.918-0.57422-7.1055 0.16797-10.492 1.0273-5.7266-6.082-16.895-11.641-19.176-12.742-0.12109-0.68359-0.25781-1.3477-0.40234-1.9883-0.48047-2.3672-1.1016-4.7656-1.8516-7.1562 1.7109-0.64844 4.332-1.332 6.2734-1.6758 10.203 2.5938 19.035 8.6719 25.141 16.887zm-28.809-17.656c-1.4805 0.39453-2.9102 0.85156-3.8789 1.2773h-0.003907c-1.0508-0.46484-3.2031-1.2109-6.1367-1.8203 0.85547-0.046875 1.7148-0.074219 2.582-0.074219 2.5352 0 5.0195 0.21484 7.4375 0.61719zm-40.312 13.621c0.21094 3.7969 0.97656 8.2695 1.2734 9.8867-4.0938 3.4414-9.457 14.223-10.871 17.168l-2.3164-1.7852c1.2148-9.7148 5.5273-18.477 11.918-25.27zm-12.105 27.098 2.1719 1.6719c0.94922 6.5234 3.0078 17.219 6.6836 21.664-0.67969 1.8984-0.51562 4.7695-0.11328 7.3594-5.5938-7.5156-8.9062-16.82-8.9062-26.887 0-1.2812 0.054688-2.5508 0.16016-3.8047zm10.844 33.309c-0.64844-2.793-1.2383-6.7227-0.64844-9.0156 3.4297 1.1445 12.668 4.0039 17.684 3.4023 1.1328 2.207 5.5312 10.391 10.789 15.246-1.375 1.0547-4.2461 2.9805-7.2539 3.918-8.0664-2.5469-15.16-7.3008-20.57-13.551zm23.082 14.262c3.1797-1.3984 5.8242-3.4375 6.5117-4.0625 5.5625 0.41406 14.738 0.64453 21.648-1.4375 0.83984 0.70703 2.0039 1.4648 3.1211 2.0742-6.0898 3.0664-12.957 4.793-20.227 4.793-3.8125 0-7.5156-0.47656-11.055-1.3711zm32.965-4.3125c-0.99219-0.47266-2.2383-1.1992-3.2109-1.918 3.0352-3.5195 9.9219-11.789 11.676-16.324 1.3945-0.35938 5.1445-1.6953 7.8398-3.5117 0.054687 0.27344 0.12109 0.56641 0.19531 0.88281 0.26562 1.1484 0.59766 2.6016 0.51562 4.2539-4.0859 6.9375-9.9688 12.688-17.008 16.613z"/>
<text x="0.0" y="117.5" font-size="5.0" font-weight="bold" font-family="Arbeit Regular, Helvetica, Arial-Unicode, Arial, Sans-serif" fill="#000000">Created by Mavadee</text><text x="0.0" y="122.5" font-size="5.0" font-weight="bold" font-family="Arbeit Regular, Helvetica, Arial-Unicode, Arial, Sans-serif" fill="#000000">from Noun Project</text></svg>