<?xml version="1.0" encoding="UTF-8"?>
<svg id="Layer_1" xmlns="http://www.w3.org/2000/svg" version="1.1" xmlns:xlink="http://www.w3.org/1999/xlink" viewBox="0 0 340 340">
  <!-- Generator: Adobe Illustrator 30.8.0, SVG Export Plug-In . SVG Version: 2.1.4 Build 7)  -->
  <defs>
    <style>
      .st0 {
        fill: url(#linear-gradient2);
      }

      .st1 {
        clip-path: url(#clippath-21);
      }

      .st2 {
        clip-path: url(#clippath-6);
      }

      .st3 {
        clip-path: url(#clippath-7);
      }

      .st4 {
        clip-path: url(#clippath-17);
      }

      .st5 {
        clip-path: url(#clippath-15);
      }

      .st6 {
        clip-path: url(#clippath-18);
      }

      .st7 {
        clip-path: url(#clippath-4);
      }

      .st8 {
        fill: url(#linear-gradient10);
      }

      .st9 {
        clip-path: url(#clippath-22);
      }

      .st10 {
        mask: url(#mask-1);
      }

      .st11 {
        clip-path: url(#clippath-23);
      }

      .st12 {
        fill: url(#linear-gradient21);
      }

      .st13 {
        clip-path: url(#clippath-9);
      }

      .st14 {
        clip-path: url(#clippath-10);
      }

      .st15 {
        fill: #fff;
      }

      .st16 {
        mask: url(#mask);
      }

      .st17 {
        fill: url(#linear-gradient1);
      }

      .st18 {
        clip-path: url(#clippath-25);
      }

      .st19 {
        fill: url(#linear-gradient9);
      }

      .st20 {
        fill: url(#linear-gradient18);
      }

      .st21 {
        clip-path: url(#clippath-11);
      }

      .st22 {
        fill: url(#linear-gradient8);
      }

      .st23 {
        fill: none;
      }

      .st24 {
        fill: url(#linear-gradient16);
      }

      .st25 {
        mask: url(#mask-2);
      }

      .st26 {
        clip-path: url(#clippath-1);
      }

      .st27 {
        fill: url(#linear-gradient22);
      }

      .st28 {
        isolation: isolate;
      }

      .st29 {
        clip-path: url(#clippath-5);
      }

      .st30 {
        clip-path: url(#clippath-20);
      }

      .st31 {
        clip-path: url(#clippath-8);
      }

      .st32 {
        fill: url(#linear-gradient19);
      }

      .st33 {
        fill: url(#linear-gradient12);
      }

      .st34 {
        clip-path: url(#clippath-3);
      }

      .st35 {
        fill: url(#linear-gradient7);
      }

      .st36 {
        clip-path: url(#clippath-12);
      }

      .st37 {
        fill: url(#linear-gradient20);
      }

      .st38 {
        fill: url(#linear-gradient4);
      }

      .st39 {
        clip-path: url(#clippath-14);
      }

      .st40 {
        clip-path: url(#clippath-19);
      }

      .st41 {
        fill: url(#linear-gradient14);
      }

      .st42 {
        fill: url(#linear-gradient5);
      }

      .st43, .st44 {
        mix-blend-mode: multiply;
      }

      .st45 {
        filter: url(#luminosity-noclip2);
      }

      .st46 {
        fill: url(#linear-gradient3);
      }

      .st47 {
        fill: url(#linear-gradient15);
      }

      .st48 {
        fill: url(#linear-gradient17);
      }

      .st49 {
        fill: url(#linear-gradient6);
      }

      .st50 {
        clip-path: url(#clippath-16);
      }

      .st51 {
        clip-path: url(#clippath-2);
      }

      .st52 {
        clip-path: url(#clippath-13);
      }

      .st53 {
        fill: url(#linear-gradient13);
      }

      .st44 {
        fill: url(#linear-gradient11);
      }

      .st54 {
        fill: url(#linear-gradient);
      }

      .st55 {
        clip-path: url(#clippath-24);
      }

      .st56 {
        clip-path: url(#clippath);
      }

      .st57 {
        mask: url(#mask-3);
      }

      .st58 {
        filter: url(#luminosity-noclip);
      }
    </style>
    <clipPath id="clippath">
      <path class="st23" d="M169.9,154.8c0,.2-.3.4-.4.5-.2.2-.8.6-.9.8,0,0,0,0,0,.1.2,0,.4-.1.7-.2.2,0,.3-.2.5-.2,0,0,0,0,0-.1,0-.1.1-.3.3-.3s.3.1.3.3,0,0,0,.1c0,0,.1,0,.2,0,0-.1,0-.3,0-.6,0-.2-.2-.2-.4-.5,0,0,0,0,0,0,0,0,0,0,0,0M163.7,56c0,15.6,1.9,101.6-5,123.1h3.7l.6-.6s.1,0,.2,0c.1,0,.2-.1.2-.2v-.8s0,0,0,0l.6-1.6s0,0,0,0v-.6c0,0,0-.1.1-.2.3,0,.9-.3,1.5-.5,1.9-.7,2.8-2.6,2.8-4.7s0-2.4,0-3.7c0-.1.1-.3.3-.3.2,0,.3,0,.5,0,0,0,0,0,0,0,0,0-.1,0-.2-.2,0,0,0,0,0,0v-.2c-1.7-.4-3.1-1.7-3.5-3.3,0-.1-.1-.3-.2-.4h-.4c0,.1,0,.2,0,.2h-.3c0,0,0,.1,0,.1h-.3c0,.1,0,.2,0,.2h-.4c0,0-.2-.6-.2-1.2s.1-1.2.2-1.2h.4s0,0,0,.2h.3s0,0,0,.1h.3s0,0,0,.2h.3c0-.2,0-.5.2-.7,0,0,0,0,.1-.1.4-1.2,1.3-2.2,2.5-2.7,0,0,0-.2.1-.3.2-.2.3-.2.4-.4,0-.1.2-.4.5-.5,0,0,0,0,0,0,0,0,.1-.4.2-.5,0,0,0-.2.1-.2h0c.2-.3,0-.4,0-1s0,0-.1,0c0,0-.2.2-.3.5,0,0,0,.1,0,.2,0,.2,0,.3-.2.2,0,0,0-.4,0-.7,0-.3.2-.4.4-.6.2-.2.4-.3.5-.3,0,0,.1,0,.1,0,0,0,0,0,0,0,0,0,0,0,0,0,0,0,0-.1,0-.2,0-.2.1-.3.3-.3.1,0,.2.2.2.3,0,0,0,.2-.1.2,0,0,0,.1,0,.1,0,0,.1.1.3.2.2,0,.8,0,1-.1.2,0,.3,0,.3,0,0,0,0,0-.2.2-.5.2-.6.2-1.1.2,0,0,0,0,0,0,0,0,0,.1,0,.3-.1.4-.1.4-.1.6,0,.1,0,.2,0,.3.3.6.3.7.3.9,0,.1,0,.5,0,.7,0,0,0,0,.1,0,1.7.3,3,1.5,3.5,3,0,0,0,0,.1.1,0,.2.1.5.2.7h.3c0-.1,0-.2,0-.2h.3c0,0,0-.1,0-.1h.3c0-.1,0-.2,0-.2h.4c0,0,.2.6.2,1.2s-.1,1.2-.2,1.2h-.4s0,0,0-.2h-.3s0,0,0-.1h-.3s0,0,0-.2h-.4c0,.1,0,.3-.2.4-.4,1.7-1.8,3-3.5,3.3v.2s0,0,0,0c0,0,0,.1-.2.2,0,0,0,0,0,0,.2,0,.3,0,.5,0,.1,0,.3.1.3.3,0,1.2,0,3.6,0,3.7,0,2.1.9,4,2.8,4.7.5.2,1.2.4,1.5.5,0,0,.1,0,.1.2v.6s0,0,0,0l.6,1.6s0,0,0,0v.8c0,.1.1.2.2.2,0,0,.1,0,.2,0l.6.6h3.7c-6.8-21.5-5.1-107.5-5-123.1-2.1-.3-4.2-.5-6.3-.5s-4.3.2-6.3.5"/>
    </clipPath>
    <linearGradient id="linear-gradient" x1="-250.1" y1="466.3" x2="-248.9" y2="466.3" gradientTransform="translate(-47540.9717 -25406.9459) rotate(-90) scale(102.32)" gradientUnits="userSpaceOnUse">
      <stop offset="0" stop-color="#e4ad53"/>
      <stop offset="0" stop-color="#4f371d"/>
      <stop offset="0" stop-color="#624827"/>
      <stop offset=".4" stop-color="#4f371d"/>
      <stop offset=".7" stop-color="#e4ad53"/>
      <stop offset=".8" stop-color="#755224"/>
      <stop offset=".9" stop-color="#4f371d"/>
      <stop offset="1" stop-color="#e4ad53"/>
    </linearGradient>
    <clipPath id="clippath-1">
      <path class="st23" d="M164.8,64.2c0,1,0,2.4,0,4,0,1.7,0,3.6,0,5.7,0,2.1,0,4.3,0,6.5,0,2.2,0,4.5,0,6.5,0,2.1,0,4,.1,5.7,0,1.7,0,3.1.1,4,0,1,0,1.5,0,1.5,0,0,0-.6,0-1.5,0-1,0-2.4,0-4,0-1.7,0-3.6,0-5.7v-6.5c0-2.2,0-4.5,0-6.5,0-2.1,0-4-.1-5.7,0-1.7,0-3.1-.1-4,0-1,0-1.5,0-1.5,0,0,0,.6,0,1.5"/>
    </clipPath>
    <linearGradient id="linear-gradient1" x1="-247.4" y1="462.9" x2="-246.2" y2="462.9" gradientTransform="translate(-13502.961 -7205.9804) rotate(-90) scale(29.524)" gradientUnits="userSpaceOnUse">
      <stop offset="0" stop-color="#a67630"/>
      <stop offset=".3" stop-color="#a67630"/>
      <stop offset=".8" stop-color="#fde488"/>
      <stop offset="1" stop-color="#755224"/>
    </linearGradient>
    <clipPath id="clippath-2">
      <path class="st23" d="M164.3,133.2c-.1,2.5-.3,5.4-.4,8.5-.2,3.1-.3,6.4-.6,9.8-.1,1.7-.2,3.3-.3,5-.1,1.6-.3,3.2-.4,4.8-.1,1.6-.3,3.1-.4,4.5-.2,1.4-.3,2.8-.5,4-.2,1.2-.3,2.4-.5,3.4-.2,1-.3,1.9-.5,2.6-.3,1.4-.5,2.2-.5,2.2,0,0,0-.2.2-.6,0-.4.3-.9.4-1.6.2-.7.4-1.6.6-2.6.2-1,.4-2.1.6-3.4.2-1.2.4-2.6.6-4,.2-1.4.4-2.9.5-4.5.2-1.6.3-3.2.4-4.8.1-1.6.3-3.3.4-5,.2-3.3.4-6.7.5-9.8.1-3.1.2-6,.3-8.5,0-2.5,0-4.6,0-6,0-.8,0-1.5,0-1.9v-.4c0,.3-.2,3.5-.4,8.3"/>
    </clipPath>
    <linearGradient id="linear-gradient2" x1="-248.9" y1="464.5" x2="-247.7" y2="464.5" gradientTransform="translate(-20271.4323 -10771.0976) rotate(-90) scale(43.9933)" gradientUnits="userSpaceOnUse">
      <stop offset="0" stop-color="#4f371d"/>
      <stop offset="0" stop-color="#4f371d"/>
      <stop offset=".3" stop-color="#fde488"/>
      <stop offset=".5" stop-color="#a67630"/>
      <stop offset=".7" stop-color="#e4ad53"/>
      <stop offset=".8" stop-color="#755224"/>
      <stop offset="1" stop-color="#755224"/>
    </linearGradient>
    <clipPath id="clippath-3">
      <path class="st23" d="M175.3,124.8c0,.1,0,.9,0,2.3,0,1.5,0,3.5,0,6,0,2.5.1,5.4.3,8.5.1,3.1.3,6.5.5,9.8.1,1.7.2,3.3.4,5,.1,1.6.3,3.2.4,4.8.1,1.6.3,3.1.5,4.5.2,1.4.4,2.8.6,4,.2,1.2.4,2.4.6,3.4.2,1,.4,1.9.6,2.6.2.7.3,1.3.4,1.6.1.4.2.6.2.6,0,0-.2-.8-.5-2.2-.1-.7-.3-1.6-.5-2.6-.2-1-.3-2.1-.5-3.4-.2-1.2-.3-2.6-.5-4-.1-1.4-.3-2.9-.4-4.5-.2-1.6-.3-3.2-.4-4.8-.1-1.6-.2-3.3-.3-5-.2-3.3-.4-6.6-.6-9.8-.2-3.1-.3-6-.4-8.5-.2-5-.4-8.3-.4-8.3h0Z"/>
    </clipPath>
    <linearGradient id="linear-gradient3" x1="-248.9" y1="464.5" x2="-247.7" y2="464.5" gradientTransform="translate(-20258.9398 -10771.0976) rotate(-90) scale(43.9933)" gradientUnits="userSpaceOnUse">
      <stop offset="0" stop-color="#4f371d"/>
      <stop offset="0" stop-color="#4f371d"/>
      <stop offset=".3" stop-color="#a67630"/>
      <stop offset=".6" stop-color="#fde488"/>
      <stop offset=".8" stop-color="#e4ad53"/>
      <stop offset="1" stop-color="#755224"/>
      <stop offset="1" stop-color="#755224"/>
    </linearGradient>
    <clipPath id="clippath-4">
      <path class="st23" d="M175.1,64.2c0,1,0,2.4-.1,4,0,1.7,0,3.6-.1,5.7,0,2.1,0,4.3,0,6.5v6.5c0,2.1,0,4,0,5.7,0,1.7,0,3.1,0,4,0,1,0,1.5,0,1.5,0,0,0-.6,0-1.5,0-1,0-2.4.1-4s0-3.6.1-5.7c0-2.1,0-4.3,0-6.5v-6.5c0-2.1,0-4,0-5.7,0-1.7,0-3.1,0-4,0-1,0-1.5,0-1.5,0,0,0,.6,0,1.5"/>
    </clipPath>
    <linearGradient id="linear-gradient4" x1="-247.4" y1="463" x2="-246.2" y2="463" gradientTransform="translate(-13494.5769 -7205.9804) rotate(-90) scale(29.524)" gradientUnits="userSpaceOnUse">
      <stop offset="0" stop-color="#a67630"/>
      <stop offset=".1" stop-color="#a67630"/>
      <stop offset=".5" stop-color="#fde488"/>
      <stop offset="1" stop-color="#755224"/>
      <stop offset="1" stop-color="#755224"/>
    </linearGradient>
    <clipPath id="clippath-5">
      <path class="st23" d="M150.7,60.1s0,0,0,0c-2.5,1.3-4.9,2.8-7.1,4.6,0,0,0,0,0,0,6.6,15.6,10.5,34.2,10.5,54.2s-4.9,43.2-13.1,59.9c0,0,0,.1,0,.1h11.2s0,0,0,0c5.2-16.9,8.2-36.3,8.2-57.1s-3.6-43.9-9.8-61.8c0,0,0,0,0,0h0Z"/>
    </clipPath>
    <linearGradient id="linear-gradient5" x1="-250" y1="466.2" x2="-248.8" y2="466.2" gradientTransform="translate(-45767.7308 -24446.8274) rotate(-90) scale(98.494)" gradientUnits="userSpaceOnUse">
      <stop offset="0" stop-color="#755224"/>
      <stop offset=".2" stop-color="#755224"/>
      <stop offset=".5" stop-color="#e4ad53"/>
      <stop offset=".8" stop-color="#755224"/>
      <stop offset="1" stop-color="#e4ad53"/>
    </linearGradient>
    <clipPath id="clippath-6">
      <path class="st23" d="M143.6,64.9l.4.9c6.4,15.4,10.1,33.6,10.1,53.2s-4.6,42.2-12.5,58.7h9.7c5.1-16.4,8-35.3,8-55.4s-3.2-43.2-9.2-60.6c-2.6.5-5.3,2.3-6.5,3.2"/>
    </clipPath>
    <linearGradient id="linear-gradient6" x1="-250" y1="466.2" x2="-248.8" y2="466.2" gradientTransform="translate(-44633.9777 -23839.422) rotate(-90) scale(96.069)" gradientUnits="userSpaceOnUse">
      <stop offset="0" stop-color="#4f371d"/>
      <stop offset=".1" stop-color="#4f371d"/>
      <stop offset=".7" stop-color="#e4ad53"/>
      <stop offset=".9" stop-color="#4f371d"/>
      <stop offset="1" stop-color="#4f371d"/>
    </linearGradient>
    <clipPath id="clippath-7">
      <path class="st23" d="M152.3,179.1h0s0,0,0,0ZM152.3,179.1s0,0,0,0h0ZM150,61.7h0s0,0,0,0l1.1,3.5c.3,1.2.7,2.3,1,3.5.3,1.2.6,2.4.9,3.6l.9,3.6c.3,1.2.5,2.4.8,3.6l.7,3.6.6,3.6.6,3.6.5,3.6.4,3.6c.3,2.4.5,4.9.7,7.3.2,2.4.3,4.9.4,7.3v1.8c0,0,.1,1.8.1,1.8,0,1.2,0,2.4,0,3.7,0,4.9,0,9.8-.3,14.7-.3,4.9-.7,9.8-1.4,14.6-.3,2.4-.7,4.9-1.1,7.3-.2,1.2-.4,2.4-.6,3.6l-.3,1.8-.4,1.8c-.5,2.4-1,4.8-1.6,7.2-.3,1.2-.6,2.4-.9,3.6-.3,1.2-.7,2.4-1,3.5h0s0,0,0,0l1,1.3c0-.1-1-1.4-1-1.4.4-1.2.7-2.3,1.1-3.5.3-1.2.7-2.4,1-3.5.3-1.2.6-2.4.9-3.6.3-1.2.6-2.4.8-3.6l.4-1.8.4-1.8c.3-1.2.5-2.4.7-3.6.4-2.4.8-4.8,1.2-7.3.7-4.9,1.1-9.8,1.4-14.7.3-4.9.4-9.8.4-14.7,0-1.2,0-2.5,0-3.7v-1.8c0,0-.1-1.8-.1-1.8-.1-2.5-.3-4.9-.5-7.4-.2-2.4-.4-4.9-.7-7.3l-.5-3.7-.5-3.6-.6-3.6-.7-3.6-.8-3.6c-.3-1.2-.6-2.4-.8-3.6-.3-1.2-.6-2.4-.9-3.6-.3-1.2-.7-2.4-1-3.5-.4-1.2-.7-2.3-1.1-3.5l-1.2-3.5.7-1.6-.7,1.5Z"/>
    </clipPath>
    <linearGradient id="linear-gradient7" x1="-250" y1="466.2" x2="-248.8" y2="466.2" gradientTransform="translate(-45865.2866 -24500.86) rotate(-90) scale(98.7098)" gradientUnits="userSpaceOnUse">
      <stop offset="0" stop-color="#fde488"/>
      <stop offset=".1" stop-color="#f9e086"/>
      <stop offset=".2" stop-color="#efd67f"/>
      <stop offset=".3" stop-color="#dec675"/>
      <stop offset=".4" stop-color="#c7ae66"/>
      <stop offset=".4" stop-color="#a88f53"/>
      <stop offset=".5" stop-color="#826a3c"/>
      <stop offset=".6" stop-color="#563e21"/>
      <stop offset=".6" stop-color="#4f371d"/>
      <stop offset=".6" stop-color="#5a4224"/>
      <stop offset=".7" stop-color="#7a6137"/>
      <stop offset=".7" stop-color="#ac9456"/>
      <stop offset=".8" stop-color="#f2d981"/>
      <stop offset=".8" stop-color="#fde488"/>
      <stop offset=".9" stop-color="#897141"/>
      <stop offset="1" stop-color="#4f371d"/>
    </linearGradient>
    <clipPath id="clippath-8">
      <path class="st23" d="M138.8,69.1c-1.4,1.5-2.7,3.1-3.8,4.7,0,0,0,0,0,0,7.2,12.5,11.5,27.5,11.5,43.7,0,24.8-8.6,50.6-25.5,61.3,0,0,0,.1,0,.1h12.6s0,0,0,0c10.6-15.6,17-36.4,17-59.4s-4.4-36.3-11.8-50.5c0,0,0,0,0,0s0,0,0,0"/>
    </clipPath>
    <linearGradient id="linear-gradient8" x1="-249.9" y1="466.1" x2="-248.7" y2="466.1" gradientTransform="translate(-42321.8708 -22591.088) rotate(-90) scale(91.099)" gradientUnits="userSpaceOnUse">
      <stop offset="0" stop-color="#4f371d"/>
      <stop offset=".2" stop-color="#755224"/>
      <stop offset=".6" stop-color="#e4ad53"/>
      <stop offset=".9" stop-color="#755224"/>
      <stop offset="1" stop-color="#e4ad53"/>
    </linearGradient>
    <clipPath id="clippath-9">
      <path class="st23" d="M138.4,71.1c-1.1.6-2.5,1.9-3.4,2.8l.4.8c7,12.3,11.1,27.1,11.1,43,0,23.9-8,48.7-23.7,60.1h10.2c10.2-15,16.5-35.2,16.5-57.3s-3.8-35.5-11-49.3c0,0,0,0,0,0"/>
    </clipPath>
    <linearGradient id="linear-gradient9" x1="-249.9" y1="466" x2="-248.7" y2="466" gradientTransform="translate(-41001.4921 -21883.8097) rotate(-90) scale(88.276)" gradientUnits="userSpaceOnUse">
      <stop offset="0" stop-color="#4c341b"/>
      <stop offset=".2" stop-color="#4c341b"/>
      <stop offset=".5" stop-color="#a67630"/>
      <stop offset=".8" stop-color="#4f371d"/>
      <stop offset="1" stop-color="#4f371d"/>
    </linearGradient>
    <clipPath id="clippath-10">
      <path class="st23" d="M141.3,77.4l.6,1.6c.2.5.4,1.1.6,1.6.2.5.4,1.1.6,1.6l.5,1.7c.7,2.2,1.4,4.4,1.9,6.7.3,1.1.5,2.3.8,3.4l.7,3.4c.2,1.1.4,2.3.6,3.4.2,1.1.4,2.3.5,3.4.3,2.3.5,4.6.7,6.9.2,2.3.3,4.6.3,6.9,0,2.3,0,4.6,0,6.9,0,2.3-.2,4.6-.5,6.9-.2,2.3-.5,4.6-.9,6.9-.7,4.6-1.8,9.1-3.1,13.5-1.3,4.4-2.9,8.8-4.9,13-1.9,4.2-4.2,8.3-6.7,12.2h0s0,0,0,0l.7,1.4s-.7-1.4-.7-1.4c2.6-3.8,5-7.9,7-12.1,2-4.2,3.7-8.6,5-13,1.4-4.4,2.4-9,3.2-13.6.8-4.6,1.3-9.2,1.4-13.9,0-2.3.1-4.7,0-7,0-2.3-.1-4.7-.3-7-.2-2.3-.4-4.6-.7-6.9-.1-1.2-.3-2.3-.5-3.5-.2-1.1-.4-2.3-.6-3.4l-.7-3.4c-.3-1.1-.5-2.3-.8-3.4-.6-2.2-1.3-4.5-2-6.7l-.6-1.6c-.2-.5-.4-1.1-.6-1.6-.2-.5-.4-1.1-.6-1.6l-.7-1.6c-.9-2.1-1.9-4.2-3-6.3,1,2.1,2,4.2,2.9,6.3"/>
    </clipPath>
    <linearGradient id="linear-gradient10" x1="-249.9" y1="466" x2="-248.7" y2="466" gradientTransform="translate(-41622.5352 -22218.1577) rotate(-90) scale(89.6133)" gradientUnits="userSpaceOnUse">
      <stop offset="0" stop-color="#4f371d"/>
      <stop offset="0" stop-color="#755d34"/>
      <stop offset=".2" stop-color="#a58d52"/>
      <stop offset=".3" stop-color="#cbb269"/>
      <stop offset=".4" stop-color="#e6cd7a"/>
      <stop offset=".4" stop-color="#f7de84"/>
      <stop offset=".5" stop-color="#fde488"/>
      <stop offset=".6" stop-color="#f9e086"/>
      <stop offset=".7" stop-color="#efd67f"/>
      <stop offset=".7" stop-color="#dec675"/>
      <stop offset=".8" stop-color="#c7ae66"/>
      <stop offset=".9" stop-color="#a88f53"/>
      <stop offset=".9" stop-color="#826a3c"/>
      <stop offset="1" stop-color="#563e21"/>
      <stop offset="1" stop-color="#4f371d"/>
    </linearGradient>
    <clipPath id="clippath-11">
      <rect class="st23" x="45.6" y="55.5" width="248.8" height="228.9"/>
    </clipPath>
    <filter id="luminosity-noclip" x="28.3" y="-61.7" width="146.9" height="130.4" color-interpolation-filters="sRGB" filterUnits="userSpaceOnUse">
      <feFlood flood-color="#fff" result="bg"/>
      <feBlend in="SourceGraphic" in2="bg"/>
    </filter>
    <clipPath id="clippath-12">
      <path class="st23" d="M28.3-61.4c0,1.5,0,3.4,0,5.7,0,1.8,0,3.8,0,6h10.2c0-2.2,0-4.2,0-6,0-2.3,0-4.3,0-5.7-1.7-.2-3.5-.3-5.2-.3s-3.5.1-5.2.3"/>
    </clipPath>
    <filter id="luminosity-noclip1" x="28.3" y="-8361.6" width="10.4" height="32766" color-interpolation-filters="sRGB" filterUnits="userSpaceOnUse">
      <feFlood flood-color="#fff" result="bg"/>
      <feBlend in="SourceGraphic" in2="bg"/>
    </filter>
    <mask id="mask-1" x="28.3" y="-8361.6" width="10.4" height="32766" maskUnits="userSpaceOnUse"/>
    <linearGradient id="linear-gradient11" x1="-237.9" y1="451.4" x2="-236.7" y2="451.4" gradientTransform="translate(-4461.9877 -2418.5986) rotate(-90) scale(9.958)" gradientUnits="userSpaceOnUse">
      <stop offset="0" stop-color="#1d1d1b"/>
      <stop offset="0" stop-color="#1d1d1b"/>
      <stop offset="0" stop-color="#1f1f1d"/>
      <stop offset=".1" stop-color="#626261"/>
      <stop offset=".3" stop-color="#9a9a99"/>
      <stop offset=".4" stop-color="#c5c5c5"/>
      <stop offset=".5" stop-color="#e5e5e4"/>
      <stop offset=".5" stop-color="#f8f8f8"/>
      <stop offset=".6" stop-color="#fff"/>
      <stop offset="1" stop-color="#fff"/>
    </linearGradient>
    <mask id="mask" x="28.3" y="-61.7" width="146.9" height="130.4" maskUnits="userSpaceOnUse">
      <g class="st58">
        <g class="st28">
          <g class="st28">
            <g class="st36">
              <g class="st10">
                <rect class="st44" x="28.3" y="-61.7" width="10.4" height="12"/>
              </g>
            </g>
          </g>
        </g>
      </g>
    </mask>
    <clipPath id="clippath-13">
      <rect class="st23" x="164.8" y="56.6" width="10.4" height="12"/>
    </clipPath>
    <clipPath id="clippath-14">
      <path class="st23" d="M169.7,56.6c-1.6,0-3.3.1-4.9.3h0c0,1.6,0,3.5,0,5.7,0,1.8,0,3.8,0,6h10.2c0-2.2,0-4.2,0-6,0-2.2,0-4.1,0-5.6h0c-1.6-.3-3.3-.4-4.9-.5h-.6Z"/>
    </clipPath>
    <linearGradient id="linear-gradient12" x1="-239.9" y1="453.8" x2="-238.7" y2="453.8" gradientTransform="translate(-4348.5165 -2320.3456) rotate(-90) scale(9.957)" gradientUnits="userSpaceOnUse">
      <stop offset="0" stop-color="#4f371d"/>
      <stop offset="0" stop-color="#4f371d"/>
      <stop offset=".2" stop-color="#5c3b1f"/>
      <stop offset=".4" stop-color="#6f4122"/>
      <stop offset=".6" stop-color="#764424"/>
      <stop offset="1" stop-color="#4f371d"/>
    </linearGradient>
    <filter id="luminosity-noclip2" x="23.7" y="-61.7" width="156.1" height="239.6" color-interpolation-filters="sRGB" filterUnits="userSpaceOnUse">
      <feFlood flood-color="#fff" result="bg"/>
      <feBlend in="SourceGraphic" in2="bg"/>
    </filter>
    <filter id="luminosity-noclip3" x="23.7" y="-8361.6" width="19.6" height="32766" color-interpolation-filters="sRGB" filterUnits="userSpaceOnUse">
      <feFlood flood-color="#fff" result="bg"/>
      <feBlend in="SourceGraphic" in2="bg"/>
    </filter>
    <mask id="mask-3" x="23.7" y="-8361.6" width="19.6" height="32766" maskUnits="userSpaceOnUse"/>
    <clipPath id="clippath-15">
      <path class="st23" d="M33.4,36.5c0,.2-.3.4-.4.5-.2.2-.8.6-.9.8,0,0,0,0,0,.1.2,0,.4-.1.7-.2.2,0,.3-.2.5-.2,0,0,0,0,0-.1,0-.1.1-.3.3-.3s.3.1.3.3,0,0,0,.1c0,0,.1,0,.2,0,0-.1,0-.3,0-.6,0-.2-.2-.2-.4-.5,0,0,0,0,0,0s0,0,0,0M28.3-61.4c0,1.5,0,3.4,0,5.7.3,25.9,1.1,93.7-4.6,115.2.5-.1,1.6-.2,3.2-.3v-.3s0,0,0,0l.6-1.6s0,0,0,0v-.6c0,0,0-.1.1-.2.3,0,.9-.3,1.5-.5,1.9-.7,2.8-2.6,2.8-4.7s0-2.4,0-3.7c0-.1.1-.3.3-.3.2,0,.3,0,.5,0,0,0,0,0,0,0,0,0-.1,0-.2-.2,0,0,0,0,0,0v-.2c-1.7-.4-3.1-1.7-3.5-3.3,0-.1-.1-.3-.2-.4h-.4c0,.1,0,.2,0,.2h-.3c0,0,0,.1,0,.1h-.3c0,.1,0,.2,0,.2h-.4c0,0-.2-.6-.2-1.2s.1-1.2.2-1.2h.4s0,0,0,.2h.3s0,0,0,.1h.3s0,0,0,.2h.3c0-.2,0-.5.2-.7,0,0,0,0,.1-.1.4-1.2,1.3-2.2,2.5-2.7,0,0,0-.2.1-.3.2-.2.3-.2.4-.4,0-.1.2-.4.5-.5,0,0,0,0,0,0,0,0,.1-.4.2-.5,0-.1,0-.2.1-.2,0,0,0,0,0,0,.2-.3,0-.4,0-1s0,0-.1,0c0,0-.2.2-.3.5,0,0,0,.1,0,.2,0,.2,0,.3-.2.2,0,0,0-.4,0-.7,0-.3.2-.4.4-.6.2-.2.4-.3.5-.3,0,0,.1,0,.1,0,0,0,0,0,0,0,0,0,0,0,0,0,0,0,0-.1,0-.2,0-.2.1-.3.3-.3.1,0,.2.2.2.3,0,0,0,.2,0,.2,0,0,0,.1,0,.1,0,0,.1.1.3.2.2,0,.8,0,1-.1.2,0,.3,0,.3,0,0,0,0,0-.2.2-.5.2-.6.2-1.1.2,0,0,0,0,0,0,0,0,0,.1,0,.3-.1.4-.1.4-.1.6,0,.1,0,.2,0,.3.3.6.3.7.3.9,0,.1,0,.5,0,.7,0,0,0,0,.1,0,1.7.3,3,1.5,3.5,3,0,0,0,0,.1.1,0,.2.1.5.2.7h.3c0-.1,0-.2,0-.2h.3c0,0,0-.1,0-.1h.3c0-.1,0-.2,0-.2h.4c0,0,.2.6.2,1.2s-.1,1.2-.2,1.2h-.4s0,0,0-.2h-.3s0,0,0-.1h-.3s0,0,0-.2h-.4c0,.1,0,.3-.2.4-.4,1.7-1.8,3-3.5,3.3v.2s0,0,0,0c0,0,0,.1-.2.2,0,0,0,0,0,0,.2,0,.3,0,.5,0,.1,0,.3.1.3.3,0,1.2,0,3.6,0,3.7,0,2.1.9,4,2.8,4.7.5.2,1.2.4,1.5.5,0,0,.1,0,.1.2v.6s0,0,0,0l.6,1.6s0,0,0,0v.3c1.5,0,2.7.2,3.1.3-5.7-21.4-4.9-89.2-4.6-115.2,0-2.3,0-4.3,0-5.7-1.7-.2-3.5-.3-5.2-.3s-3.5.1-5.2.3"/>
    </clipPath>
    <linearGradient id="linear-gradient13" x1="-252.3" y1="469.2" x2="-251.1" y2="469.2" gradientTransform="translate(47139.5423 25261.9782) rotate(90) scale(100.387)" gradientUnits="userSpaceOnUse">
      <stop offset="0" stop-color="#fff"/>
      <stop offset="0" stop-color="#fff"/>
      <stop offset=".2" stop-color="#fff"/>
      <stop offset=".4" stop-color="#fff"/>
      <stop offset=".5" stop-color="#fff"/>
      <stop offset=".7" stop-color="#dbdbda"/>
      <stop offset=".8" stop-color="#eaeae9"/>
      <stop offset=".8" stop-color="#f9f9f9"/>
      <stop offset=".9" stop-color="#fff"/>
      <stop offset="1" stop-color="#fff"/>
      <stop offset="1" stop-color="#fff"/>
    </linearGradient>
    <mask id="mask-2" x="23.7" y="-61.7" width="156.1" height="239.6" maskUnits="userSpaceOnUse">
      <g class="st45">
        <g class="st28">
          <g class="st28">
            <g class="st57">
              <g class="st43">
                <g class="st5">
                  <rect class="st53" x="23.7" y="-61.7" width="19.6" height="121.2"/>
                </g>
              </g>
            </g>
          </g>
        </g>
      </g>
    </mask>
    <clipPath id="clippath-16">
      <rect class="st23" x="160.2" y="56.6" width="19.6" height="121.2"/>
    </clipPath>
    <clipPath id="clippath-17">
      <path class="st23" d="M169.9,154.8c0,.2-.3.4-.4.5-.2.2-.8.6-.9.8,0,0,0,0,0,.1.2,0,.4-.1.7-.2.2,0,.3-.2.5-.2,0,0,0,0,0-.1,0-.1.1-.3.3-.3s.3.1.3.3,0,0,0,.1c0,0,.1,0,.2,0,0-.1,0-.3,0-.6,0-.2-.2-.2-.4-.5,0,0,0,0,0,0,0,0,0,0,0,0M169.7,56.6c-1.6,0-3.3.1-4.9.3,0,1.5,0,3.4,0,5.7.3,25.9,1.1,93.7-4.6,115.2.5-.1,1.6-.2,3.2-.3v-.3s0,0,0,0l.6-1.6s0,0,0,0v-.6c0,0,0-.1.1-.2.3,0,.9-.3,1.5-.5,1.9-.7,2.8-2.6,2.8-4.7s0-2.4,0-3.7c0-.1.1-.3.3-.3.2,0,.3,0,.5,0,0,0,0,0,0,0,0,0-.1,0-.2-.2,0,0,0,0,0,0v-.2c-1.7-.4-3.1-1.7-3.5-3.3,0-.1-.1-.3-.2-.4h-.4c0,.1,0,.2,0,.2h-.3c0,0,0,.1,0,.1h-.3c0,.1,0,.2,0,.2h-.4c0,0-.2-.6-.2-1.2s.1-1.2.2-1.2h.4s0,0,0,.2h.3s0,0,0,.1h.3s0,0,0,.2h.3c0-.2,0-.5.2-.7,0,0,0,0,.1-.1.4-1.2,1.3-2.2,2.5-2.7,0,0,0-.2.1-.3.2-.2.3-.2.4-.4,0-.1.2-.4.5-.5,0,0,0,0,0,0,0,0,.1-.4.2-.5,0,0,0-.2.1-.2h0c.2-.3,0-.4,0-1s0,0-.1,0c0,0-.2.2-.3.5,0,0,0,.1,0,.2,0,.2,0,.3-.2.2,0,0,0-.4,0-.7,0-.3.2-.4.4-.6.2-.2.4-.3.5-.3,0,0,.1,0,.1,0,0,0,0,0,0,0,0,0,0,0,0,0,0,0,0-.1,0-.2,0-.2.1-.3.3-.3.1,0,.2.2.2.3,0,0,0,.2-.1.2,0,0,0,.1,0,.1,0,0,.1.1.3.2.2,0,.8,0,1-.1.2,0,.3,0,.3,0,0,0,0,0-.2.2-.5.2-.6.2-1.1.2,0,0,0,0,0,0,0,0,0,.1,0,.3-.1.4-.1.4-.1.6,0,.1,0,.2,0,.3.3.6.3.7.3.9,0,.1,0,.5,0,.7,0,0,0,0,.1,0,1.7.3,3,1.5,3.5,3,0,0,0,0,.1.1,0,.2.1.5.2.7h.3c0-.1,0-.2,0-.2h.3c0,0,0-.1,0-.1h.3c0-.1,0-.2,0-.2h.4c0,0,.2.6.2,1.2s-.1,1.2-.2,1.2h-.4s0,0,0-.2h-.3s0,0,0-.1h-.3s0,0,0-.2h-.4c0,.1,0,.3-.2.4-.4,1.7-1.8,3-3.5,3.3v.2s0,0,0,0c0,0,0,.1-.2.2,0,0,0,0,0,0,.2,0,.3,0,.5,0,.1,0,.3.1.3.3,0,1.2,0,3.6,0,3.7,0,2.1.9,4,2.8,4.7.5.2,1.2.4,1.5.5,0,0,.1,0,.1.2v.6s0,0,0,0l.6,1.6s0,0,0,0v.3c1.5,0,2.7.2,3.1.3-5.7-21.4-4.9-89.2-4.6-115.2,0-2.3,0-4.3,0-5.7-1.6-.2-3.3-.3-4.9-.3h-.6Z"/>
    </clipPath>
    <linearGradient id="linear-gradient14" x1="-252.1" y1="469" x2="-250.9" y2="469" gradientTransform="translate(47252.064 25359.7229) rotate(90) scale(100.386)" gradientUnits="userSpaceOnUse">
      <stop offset="0" stop-color="#4f371d"/>
      <stop offset="0" stop-color="#4f371d"/>
      <stop offset=".2" stop-color="#a67630"/>
      <stop offset=".2" stop-color="#ae7e35"/>
      <stop offset=".3" stop-color="#c49544"/>
      <stop offset=".4" stop-color="#e7ba5c"/>
      <stop offset=".4" stop-color="#fbcf6a"/>
      <stop offset=".5" stop-color="#fbcf6a"/>
      <stop offset=".7" stop-color="#e4ad53"/>
      <stop offset=".8" stop-color="#d29e4c"/>
      <stop offset=".8" stop-color="#a3793b"/>
      <stop offset=".8" stop-color="#7e5c2e"/>
      <stop offset=".8" stop-color="#644824"/>
      <stop offset=".9" stop-color="#543b1f"/>
      <stop offset=".9" stop-color="#4f371d"/>
      <stop offset="1" stop-color="#744222"/>
      <stop offset="1" stop-color="#744222"/>
    </linearGradient>
    <clipPath id="clippath-18">
      <path class="st23" d="M189.3,60.1s0,0,0,0c-6.2,17.9-9.8,39.1-9.8,61.8s3,40.2,8.2,57.1c0,0,0,0,0,0h11.2c0,0,.1,0,0-.1-8.2-16.7-13.1-37.5-13.1-59.9s3.9-38.6,10.5-54.2c0,0,0,0,0,0-2.2-1.7-4.6-3.3-7.1-4.6,0,0,0,0,0,0h0Z"/>
    </clipPath>
    <linearGradient id="linear-gradient15" x1="-250" y1="469" x2="-248.8" y2="469" gradientTransform="translate(46383.2417 -24446.8274) rotate(-90) scale(98.494 -98.494)" gradientUnits="userSpaceOnUse">
      <stop offset="0" stop-color="#755224"/>
      <stop offset=".2" stop-color="#755224"/>
      <stop offset=".5" stop-color="#e4ad53"/>
      <stop offset=".8" stop-color="#755224"/>
      <stop offset="1" stop-color="#e4ad53"/>
    </linearGradient>
    <clipPath id="clippath-19">
      <path class="st23" d="M180.7,122.3c0,20.2,2.9,39.1,8,55.4h9.7c-7.9-16.5-12.5-36.8-12.5-58.7s3.7-37.8,10.1-53.2h0l.4-.9c-1.2-1-3.9-2.7-6.5-3.2-6,17.4-9.2,38.5-9.2,60.6"/>
    </clipPath>
    <linearGradient id="linear-gradient16" x1="-250" y1="469" x2="-248.8" y2="469" gradientTransform="translate(45249.4887 -23839.422) rotate(-90) scale(96.069 -96.069)" gradientUnits="userSpaceOnUse">
      <stop offset="0" stop-color="#4f371d"/>
      <stop offset=".1" stop-color="#4f371d"/>
      <stop offset=".7" stop-color="#e4ad53"/>
      <stop offset=".9" stop-color="#4f371d"/>
      <stop offset="1" stop-color="#4f371d"/>
    </linearGradient>
    <clipPath id="clippath-20">
      <path class="st23" d="M189.9,61.7l-1.2,3.5c-.4,1.2-.7,2.3-1.1,3.5-.3,1.2-.7,2.4-1,3.5-.3,1.2-.6,2.4-.9,3.6-.3,1.2-.6,2.4-.8,3.6l-.7,3.6-.7,3.6-.6,3.6-.5,3.6-.5,3.7c-.3,2.4-.5,4.9-.7,7.3-.2,2.4-.4,4.9-.5,7.4v1.8c0,0-.1,1.8-.1,1.8,0,1.2,0,2.5,0,3.7,0,4.9,0,9.8.4,14.7.3,4.9.8,9.8,1.4,14.7.3,2.4.7,4.9,1.2,7.3.2,1.2.4,2.4.7,3.6l.4,1.8.4,1.8c.3,1.2.5,2.4.8,3.6.3,1.2.6,2.4.9,3.6.3,1.2.7,2.4,1,3.5.3,1.2.7,2.3,1.1,3.5,0,0-1,1.4-1,1.4l1-1.4h0c-.3-1.2-.7-2.4-1-3.5-.3-1.2-.7-2.4-.9-3.6-.6-2.4-1.2-4.8-1.6-7.2l-.4-1.8-.3-1.8c-.2-1.2-.4-2.4-.6-3.6-.4-2.4-.8-4.8-1.1-7.3-.6-4.9-1.1-9.7-1.4-14.6-.3-4.9-.4-9.8-.3-14.7,0-1.2,0-2.5,0-3.7v-1.8s.1-1.8.1-1.8c0-2.4.3-4.9.4-7.3.2-2.4.4-4.9.7-7.3l.4-3.6.5-3.6.6-3.6.6-3.6.7-3.6c.2-1.2.5-2.4.8-3.6l.9-3.6c.3-1.2.6-2.4.9-3.6.3-1.2.7-2.4,1-3.5l1.1-3.5h0s0,0,0,0l-.7-1.5.7,1.6Z"/>
    </clipPath>
    <linearGradient id="linear-gradient17" x1="-250" y1="469" x2="-248.8" y2="469" gradientTransform="translate(46480.7975 -24500.86) rotate(-90) scale(98.7098 -98.7098)" gradientUnits="userSpaceOnUse">
      <stop offset="0" stop-color="#fde488"/>
      <stop offset=".1" stop-color="#f9e086"/>
      <stop offset=".2" stop-color="#efd67f"/>
      <stop offset=".3" stop-color="#dec675"/>
      <stop offset=".4" stop-color="#c7ae66"/>
      <stop offset=".4" stop-color="#a88f53"/>
      <stop offset=".5" stop-color="#826a3c"/>
      <stop offset=".6" stop-color="#563e21"/>
      <stop offset=".6" stop-color="#4f371d"/>
      <stop offset=".6" stop-color="#5a4224"/>
      <stop offset=".7" stop-color="#7a6137"/>
      <stop offset=".7" stop-color="#ac9456"/>
      <stop offset=".8" stop-color="#f2d981"/>
      <stop offset=".8" stop-color="#fde488"/>
      <stop offset=".9" stop-color="#897141"/>
      <stop offset="1" stop-color="#4f371d"/>
    </linearGradient>
    <clipPath id="clippath-21">
      <path class="st23" d="M201,69.1c-7.4,14.3-11.8,31.7-11.8,50.5s6.5,43.8,17,59.4c0,0,0,0,0,0h12.6c0,0,.1-.1,0-.1-16.9-10.7-25.5-36.5-25.5-61.3s4.2-31.2,11.5-43.7c0,0,0,0,0,0-1.2-1.7-2.4-3.3-3.8-4.7,0,0,0,0,0,0s0,0,0,0"/>
    </clipPath>
    <linearGradient id="linear-gradient18" x1="-249.9" y1="469.1" x2="-248.7" y2="469.1" gradientTransform="translate(42937.3827 -22591.088) rotate(-90) scale(91.099 -91.099)" gradientUnits="userSpaceOnUse">
      <stop offset="0" stop-color="#4f371d"/>
      <stop offset=".2" stop-color="#755224"/>
      <stop offset=".6" stop-color="#e4ad53"/>
      <stop offset=".9" stop-color="#755224"/>
      <stop offset="1" stop-color="#e4ad53"/>
    </linearGradient>
    <clipPath id="clippath-22">
      <path class="st23" d="M190.6,120.4c0,22.1,6.2,42.3,16.5,57.3h10.2c-15.7-11.4-23.7-36.2-23.7-60.1s4.1-30.6,11.1-43l.4-.8c-.9-.9-2.3-2.2-3.4-2.8h0c-7.2,13.8-11,31.1-11,49.3"/>
    </clipPath>
    <linearGradient id="linear-gradient19" x1="-249.9" y1="469.1" x2="-248.7" y2="469.1" gradientTransform="translate(41617.004 -21883.8097) rotate(-90) scale(88.276 -88.276)" gradientUnits="userSpaceOnUse">
      <stop offset="0" stop-color="#4c341b"/>
      <stop offset=".2" stop-color="#4c341b"/>
      <stop offset=".5" stop-color="#a67630"/>
      <stop offset=".8" stop-color="#4f371d"/>
      <stop offset="1" stop-color="#4f371d"/>
    </linearGradient>
    <clipPath id="clippath-23">
      <path class="st23" d="M198.6,77.4l-.7,1.6c-.2.5-.4,1.1-.6,1.6-.2.5-.4,1.1-.6,1.6l-.6,1.6c-.8,2.2-1.4,4.4-2,6.7-.3,1.1-.6,2.3-.8,3.4l-.7,3.4c-.2,1.1-.4,2.3-.6,3.4-.2,1.1-.4,2.3-.5,3.5-.3,2.3-.5,4.6-.7,6.9-.2,2.3-.3,4.6-.3,7,0,2.3,0,4.7,0,7,.2,4.7.7,9.3,1.4,13.9.8,4.6,1.8,9.1,3.2,13.6,1.4,4.4,3,8.8,5,13,2,4.2,4.3,8.2,7,12.1,0,0-.7,1.4-.7,1.4l.7-1.4h0s0,0,0,0c-2.6-3.9-4.8-8-6.7-12.2-1.9-4.2-3.6-8.6-4.9-13-1.3-4.4-2.4-9-3.1-13.5-.4-2.3-.7-4.6-.9-6.9-.2-2.3-.4-4.6-.5-6.9,0-2.3-.1-4.6,0-6.9,0-2.3.1-4.6.3-6.9.2-2.3.4-4.6.7-6.9.1-1.2.3-2.3.5-3.4.2-1.1.4-2.3.6-3.4l.7-3.4c.3-1.1.5-2.3.8-3.4.6-2.2,1.2-4.5,1.9-6.7l.5-1.7c.2-.5.4-1.1.6-1.6.2-.5.4-1.1.6-1.6l.6-1.6c.9-2.2,1.9-4.3,2.9-6.3-1.1,2.1-2.1,4.1-3,6.3"/>
    </clipPath>
    <linearGradient id="linear-gradient20" x1="-249.9" y1="469.1" x2="-248.7" y2="469.1" gradientTransform="translate(42238.047 -22218.1577) rotate(-90) scale(89.6133 -89.6133)" gradientUnits="userSpaceOnUse">
      <stop offset="0" stop-color="#4f371d"/>
      <stop offset="0" stop-color="#755d34"/>
      <stop offset=".2" stop-color="#a58d52"/>
      <stop offset=".3" stop-color="#cbb269"/>
      <stop offset=".4" stop-color="#e6cd7a"/>
      <stop offset=".4" stop-color="#f7de84"/>
      <stop offset=".5" stop-color="#fde488"/>
      <stop offset=".6" stop-color="#f9e086"/>
      <stop offset=".7" stop-color="#efd67f"/>
      <stop offset=".7" stop-color="#dec675"/>
      <stop offset=".8" stop-color="#c7ae66"/>
      <stop offset=".9" stop-color="#a88f53"/>
      <stop offset=".9" stop-color="#826a3c"/>
      <stop offset="1" stop-color="#563e21"/>
      <stop offset="1" stop-color="#4f371d"/>
    </linearGradient>
    <clipPath id="clippath-24">
      <path class="st23" d="M168.2,156.2c0,0,0,.1,0,.2-1.2.5-2.1,1.5-2.6,2.7h-.1c0,.1,0,.1,0,.1h0c0,.2-.1.5-.2.7h-.2s0,0,0,0c0,0,0,0,0,0,0,0,0,0,0,0,0,0,0,0,0,0h-.2s0,0,0,0c0,0,0,0,0,0,0,0,0,0,0,0h-.3s0,0,0,0c0,0,0,0,0,0,0,0,0,0-.1,0,0,0-.2,0-.2,0,0,0-.2,0-.3,0,0,0,0,0,0,0,0,0,0,0,0,0,0,0,0,0,0,.1,0,0,0,.2,0,.2,0,.3,0,.6,0,.9,0,.3,0,.6,0,.9,0,.1,0,.2.1.3,0,0,0,0,0,0,0,0,.4,0,.4,0,0,0,0,0,0,0,0,0,0,0,0,0,0,0,0,0,0,0,0,0,0,0,0,0h.2c0,0,0,0,0,0,0,0,0,0,0,0,0,0,0,0,0,0,0,0,0,0,0,0h.2c0,0,0,0,.1,0,0,0,0,0,0,0,0,0,0,0,0,0,0,0,0,0,0,0h.2c0,.1,0,.2.1.3,0,.2.1.4.2.6,0,.2.2.4.3.6.2.4.5.7.8,1,.3.3.7.6,1.1.8.4.2.7.3,1.1.4h0c0,0,0,.1,0,.2,0,0,0,0,0,.1h0c0,0-.2,0-.3,0-.1,0-.3,0-.3.2,0,0,0,.1,0,.2h0c0,.1,0,.7,0,.7v2.2c0,.7,0,1.5-.1,2.2-.1.7-.4,1.4-.9,2-.4.6-1,1-1.7,1.3-.3.1-.7.3-1,.4l-.5.2c0,0-.1,0-.1.1,0,0,0,.1,0,.2v.3s0,.3,0,.3c0,0,0,.2,0,.2l-.2.5-.2.5v.3c-.1,0-.2.1-.2.3v.5c0,0,0,.2,0,.3,0,0,0,.2-.2.2,0,0-.2,0-.2.1l-.2.2-.4.4.4-.4c.1-.1.2-.3.4-.3,0,0,.2,0,.2-.2,0,0,0-.2,0-.3v-.5c0-.1,0-.2,0-.2,0,0,.1-.3.1-.3l.2-.5.2-.5c0,0,0-.1.1-.3v-.3s0-.3,0-.3c0-.1,0-.2,0-.2l.5-.2c.3-.1.7-.2,1-.4.7-.3,1.3-.7,1.8-1.3.5-.6.8-1.3.9-2,.2-.7.1-1.5.2-2.2v-2.2s0-.6,0-.6h0c0-.2,0-.2,0-.2,0,0,0,0,.1,0,0,0,.2,0,.3,0h.1s0,0,0,0c0,0,0,0,0,0,0,0,0,0,0-.1,0,0,0,0,0-.1,0,0,0,0,0,0,0,0,0,0,0,0,0,0,0,0,0,0v-.2s0,0,0,0h0c-.4-.1-.8-.2-1.2-.4-.4-.2-.7-.4-1-.7-.3-.3-.6-.6-.8-1-.1-.2-.2-.4-.3-.6,0-.2-.1-.4-.2-.6h0s0,0,0,0c0-.1-.1-.2-.2-.4h0c0,0-.5,0-.5,0h0c0,.1,0,.2,0,.2h0s-.3,0-.3,0h0c0,.1,0,.1,0,.1h-.4s0,0,0,0c0,0,0,.1,0,.1h-.4s0-.1,0-.1c0-.3,0-.6,0-.9,0-.3,0-.6,0-.9,0,0,0-.1,0-.2,0,0,0,0,0-.1,0,0,0,0,0,0h0s.4,0,.4,0c0,0,0,0,0,0,0,0,0,0,0,0h0c0,0,.4,0,.4,0,0,0,0,0,0,0h0c0,0,.3,0,.3,0,0,0,0,0,0,.1,0,0,0,0,0,0h.5c0-.3,0-.5.2-.8h.1c0-.1,0-.1,0-.1h0c.4-1.2,1.3-2.2,2.5-2.7h0s0,0,0,0c0,0,0-.1,0-.2,0,0,0-.1.1-.2,0,0,0,0-.1.1"/>
    </clipPath>
    <linearGradient id="linear-gradient21" x1="-274.8" y1="451.8" x2="-273.6" y2="451.8" gradientTransform="translate(1766.6131 -2470.2664) scale(5.8389)" gradientUnits="userSpaceOnUse">
      <stop offset="0" stop-color="#4f371d"/>
      <stop offset=".3" stop-color="#fde488"/>
      <stop offset=".5" stop-color="#a67630"/>
      <stop offset=".7" stop-color="#e4ad53"/>
      <stop offset=".8" stop-color="#755224"/>
      <stop offset="1" stop-color="#755224"/>
    </linearGradient>
    <clipPath id="clippath-25">
      <path class="st23" d="M170.7,156h0s0,0,0,0h.1c0,0,0,0,0,0h0c.8.1,1.5.5,2.2,1,.3.3.6.6.8.9.2.3.4.7.5,1.1h0s0,0,0,0h.1c0,.1.1.6.2.8,0,0,0,0,0,0h.5c0-.1,0-.2,0-.2h.3c0,0,0-.1,0-.1h.4c0-.1,0-.1,0-.2,0,0,0,0,0,0h.4s0,.1,0,.2c0,.3,0,.6,0,.9,0,.3,0,.6,0,.9,0,0,0,.1,0,.2h-.3s0,0,0-.1h0c0,0-.4,0-.4,0,0,0,0-.2,0-.2h-.3s0,0,0,0h0c0,0-.5,0-.5,0l-.2.5h0c0,.2-.1.4-.2.6,0,.2-.2.4-.3.6-.2.4-.5.7-.8,1-.3.3-.6.5-1,.7-.4.2-.8.3-1.2.4h0s0,.4,0,.4c0,0,0,0,0,0,0,0,0,0,0,0,0,0,0,0,0,0,0,0,0,0,0,.1,0,0,0,0,0,.1,0,0,0,0,0,0h0s.1,0,.1,0h.3c0,0,.1,0,.1.1,0,0,0,0,0,0v2.9c0,.7,0,1.5.2,2.2.2.7.5,1.4.9,2,.2.3.5.6.8.8.3.2.6.4,1,.5.4.1.7.2,1,.3l.5.2c0,0,0,0,0,.2,0,0,0,.2,0,.3,0,.1,0,.2,0,.3,0,.1,0,.2,0,.3,0,.1.2.4.2.5,0,.1.2.4.2.5,0,0,.1.3.1.3,0,0,0,.2,0,.3v.5c0,0,0,.2,0,.3,0,0,0,.2.2.2.2,0,.2,0,.4.3l.4.4-.4-.4-.2-.2c0-.1-.1-.1-.2-.1,0,0-.1,0-.2-.2,0,0,0-.2,0-.3v-.5c0-.1,0-.2,0-.3,0,0,0-.2-.1-.3l-.2-.5c0-.1-.2-.4-.2-.5,0,0,0-.2,0-.2,0,0,0-.2,0-.3v-.3c0,0,0,0,0-.2,0,0,0-.1-.1-.1l-.5-.2c-.3-.1-.7-.2-1-.4-.3-.1-.6-.3-.9-.5-.3-.2-.5-.5-.8-.8-.4-.6-.7-1.3-.9-2-.2-.7-.1-1.4-.1-2.2v-2.9c0,0,0-.1,0-.2,0-.1-.2-.2-.3-.2h-.3s0,0,0,0c0,0,0,0,0-.1,0,0,0,0,0-.1h0c.2-.2.4-.2.5-.3.2,0,.4-.2.6-.3.4-.2.7-.5,1.1-.8.3-.3.6-.6.8-1,.1-.2.2-.4.3-.6,0-.2.1-.4.2-.6v-.3h.3s0,0,0,0c0,0,0,0,0,0,0,0,0,0,0,0,0,0,0,0,.1,0h.2s0,0,0,0c0,0,0,0,0,0,0,0,0,0,0,0h.2s0,0,0,0c0,0,0,0,0,0,0,0,0,0,0,0,0,0,0,0,0,0h.4s0,0,0,0h0s0,0,0,0c0,0,0,0,0,0,0,0,0-.2,0-.3,0-.3,0-.7,0-1,0-.3,0-.7,0-1,0,0,0-.1,0-.3,0,0,0,0,0,0s-.2,0-.2,0c0,0-.2,0-.3,0s0,0-.1.1c0,0,0,0,0,0h-.2s0,0,0,0c0,0,0,0,0,0,0,0,0,0,0,0h-.2s0,0,0,0c0,0,0,0,0,0,0,0,0,0,0,0h-.2l-.2-.7h0s0,0,0,0h-.1c-.1-.5-.3-.9-.6-1.2-.2-.3-.5-.6-.8-.9-.6-.5-1.4-.9-2.2-1h-.1c0,0,0-.7,0-.7v.7Z"/>
    </clipPath>
    <linearGradient id="linear-gradient22" x1="-246.4" y1="460.7" x2="-245.2" y2="460.7" gradientTransform="translate(-8930.6687 -4689.5613) rotate(-90) scale(19.7628)" gradientUnits="userSpaceOnUse">
      <stop offset="0" stop-color="#e4ad53"/>
      <stop offset=".2" stop-color="#755224"/>
      <stop offset=".5" stop-color="#a67630"/>
      <stop offset=".7" stop-color="#fde488"/>
      <stop offset=".9" stop-color="#4f371d"/>
      <stop offset="1" stop-color="#4f371d"/>
    </linearGradient>
  </defs>
  <path class="st15" d="M51.4,244.2v-19.6c-1-.2-1.9-.3-2.9-.3s-1.9.1-2.9.3v24.8h15.9c.2-.8.3-1.7.3-2.6s0-1.7-.3-2.6h-10.2ZM65.6,224.7v24.7c1,.2,2,.2,2.9.2s1.9,0,2.8-.2v-24.7c-1-.2-2-.2-2.9-.2s-1.9,0-2.8.2M90.4,236.7c1.9-.8,3.2-2.4,3.2-5.4,0-4.4-2.8-7.1-9.8-7.1s-5.8.3-8,.8v24.4c2.2.4,5.1.7,8.2.7,7.6,0,10.8-3,10.8-7.6s-1.7-4.9-4.3-5.8M81.5,229c1,0,1.9-.1,2.7-.1,2.5,0,3.8,1,3.8,2.7s-1,3-3.6,3h-2.9v-5.6ZM84.5,245.5c-1.1,0-2,0-3-.1v-6.2h3.2c2.8,0,4.1,1.2,4.1,3.1s-1.3,3.2-4.4,3.2M102.8,244.3v-5h9.5c.2-.9.3-1.7.3-2.5s0-1.7-.3-2.5h-9.5v-4.5h10.6c.2-.9.3-1.7.3-2.5s0-1.8-.3-2.6h-16.4v24.8h16.8c.2-.8.3-1.7.3-2.6s0-1.7-.3-2.5h-11ZM136.7,232.1c0-4.8-3.1-7.9-10.6-7.9s-5.9.3-8.3.8v24.4c1,.2,2,.2,2.9.2s1.9,0,2.9-.2v-8.6c1,0,1.9,0,2.8,0h.3l5.1,8.7c.4,0,1,0,1.5,0,1.7,0,3.6-.1,4.9-.5l-5.8-9.5c2.7-1.4,4.4-3.9,4.4-7.5M126.6,236.1c-1,0-2,0-3,0v-6.9c1,0,2-.1,3-.1,2.9,0,4.2,1.3,4.2,3.4s-1.2,3.6-4.2,3.6M158.5,227.2c0-.8,0-1.7-.3-2.5h-19.8c-.2.8-.3,1.7-.3,2.6s0,1.7.3,2.5h7.1v19.6c1,.2,1.9.3,2.9.3s1.9,0,2.9-.3v-19.6h7c.2-.9.3-1.7.3-2.6M167.1,224.4c-1,0-2,0-3,.2l-9.3,24.5c.8.3,1.9.4,3,.4s1.8,0,2.6-.2l5.6-15.4.7-2.4.8,2.4,2.1,5.7h-3.6s-.6.9-1.1,2.4c-.4,1.5-.5,2.4-.5,2.4h6.9l1.8,4.9c.7.1,1.4.2,2.1.2,1.3,0,2.5-.2,3.7-.5l-9.2-24.5c-1-.2-1.8-.2-2.8-.2M189.1,224.1c-3.6,0-6,.3-8,.6v24.6c2.3.3,4.6.5,8.1.5,8.5,0,14.1-5,14.1-13.1s-5.1-12.6-14.2-12.6M189.5,244.5c-.9,0-1.8,0-2.6,0v-14.8c.9,0,1.7,0,2.5,0,4.9,0,7.6,2.9,7.6,7.3s-2.7,7.7-7.5,7.7M218.4,223.8c-7.6,0-13,5.4-13,13.2s5.4,13.1,13,13.1,13-5.4,13-13.1-5.4-13.2-13-13.2M218.4,244.7c-4.1,0-6.8-3.1-6.8-7.7s2.7-7.7,6.8-7.7,6.8,3,6.8,7.7-2.7,7.7-6.8,7.7M252.3,232.1c0-4.8-3.1-7.9-10.6-7.9s-5.9.3-8.3.8v24.4c1,.2,2,.2,2.9.2s1.9,0,2.9-.2v-8.6c1,0,1.9,0,2.8,0h.3l5.1,8.7c.4,0,1,0,1.5,0,1.7,0,3.6-.1,4.9-.5l-5.8-9.5c2.7-1.4,4.4-3.9,4.4-7.5M242.3,236.1c-1,0-2,0-3,0v-6.9c1,0,2-.1,3-.1,2.9,0,4.2,1.3,4.2,3.4s-1.2,3.6-4.2,3.6M261.8,244.3v-5h9.5c.2-.9.3-1.7.3-2.5s0-1.7-.3-2.5h-9.5v-4.5h10.6c.2-.9.3-1.7.3-2.5s0-1.8-.3-2.6h-16.4v24.8h16.8c.2-.8.3-1.7.3-2.6s0-1.7-.3-2.5h-11ZM286.5,234.1c-4.4-1.1-5-1.6-5-2.9s1.2-2,3.5-2,4.9.9,6.3,1.9c1.6-.9,2.5-2.9,2.7-4.7-1.5-1.2-4.3-2.5-8.6-2.5s-9.5,3-9.5,7.8c0,5,3.7,6.6,7.9,7.6,4.4,1.1,5,1.9,5,3.1s-1.1,2.2-3.9,2.2-5.5-1-7.1-2.4c-1.4.9-2.5,2.6-2.7,4.6,1.6,1.4,4.7,3,9.6,3s9.7-3,9.6-8.3c0-4.4-3.2-6.4-7.9-7.6"/>
  <path class="st15" d="M135.8,198.2c-.4-.4-.8-.7-1.3-.9-1-.4-2.3-.4-3.3,0-.5.2-1,.5-1.3.9-.4.4-.7.8-.9,1.3-.2.5-.3,1.1-.3,1.6v9.5c0,.8.1,1.5.4,2,.3.5.6,1,1,1.3.4.3.9.6,1.4.7.5.1,1,.2,1.5.2s1.1-.1,1.6-.3c.5-.2.9-.5,1.3-.9.4-.4.7-.8.9-1.3.2-.5.3-1,.3-1.6v-1c0-.1-.1-.2-.2-.2h-2.4c-.1,0-.2.1-.2.2v.8c0,.3,0,.6-.1.8,0,.2-.2.4-.3.5-.1.1-.3.2-.4.2-.2,0-.3,0-.5,0-.5,0-.8-.1-1-.4-.2-.3-.3-.7-.3-1.2v-8.8c0-.5,0-1,.3-1.4.2-.3.5-.5,1.1-.5s.7.1,1,.5c.3.3.4.7.4,1.1v.8c0,.1.1.2.2.2h2.4c.1,0,.2-.1.2-.2v-.9c0-.6-.1-1.2-.3-1.7-.2-.5-.5-1-.9-1.4M146.1,198.1c-.4-.4-.9-.6-1.4-.8-1-.4-2.1-.4-3.1,0-.5.2-1,.5-1.4.8-.4.4-.7.8-1,1.4-.3.6-.4,1.2-.4,1.9v9.1c0,.7.1,1.4.4,1.9.3.5.6,1,1,1.4.4.4.9.6,1.4.8.5.2,1,.3,1.5.3s1,0,1.5-.3c.5-.2,1-.5,1.4-.8.4-.4.7-.8,1-1.4.3-.5.4-1.2.4-1.9v-9.1c0-.7-.1-1.4-.4-1.9-.3-.6-.6-1-1-1.4M144.7,210.4c0,.5-.1.9-.4,1.2-.3.3-.6.4-1.1.4s-.8-.1-1.1-.4c-.3-.2-.4-.6-.4-1.2v-9.1c0-.5.1-.9.4-1.2.3-.3.6-.4,1.1-.4s.8.1,1.1.4c.3.2.4.6.4,1.2v9.1ZM158.8,197.1h-2.4c-.1,0-.2.1-.2.2v8.5c0,.2-.2.2-.3,0l-3.1-8.7c0,0-.1-.1-.2-.1h-2.3c-.1,0-.2.1-.2.2v17.1c0,.1,0,.2.2.2h2.4c.1,0,.2-.1.2-.2v-8.5c0-.2.2-.2.3,0l3.2,8.7c0,0,.1.1.2.1h2.2c.1,0,.2-.1.2-.2v-17.1c0-.1,0-.2-.2-.2M172.8,197.1h-2.3c0,0-.2,0-.2.1l-2.8,8.2c0,.1-.2.1-.3,0l-2.9-8.2c0,0-.1-.1-.2-.1h-2.3c-.1,0-.2,0-.2.2v17.1c0,.1.1.2.2.2h2.4c.1,0,.2-.1.2-.2v-8.5c0-.2.2-.2.3,0l1.8,5.6c0,0,0,.1.1.1h1.3c0,0,.1,0,.1-.1l1.8-5.6c0-.2.3-.1.3,0v8.5c0,.1,0,.2.2.2h2.4c.1,0,.2-.1.2-.2v-17.1c0-.1-.1-.2-.2-.2M183,197.1h-7.3c-.1,0-.2,0-.2.2v17.1c0,.1.1.2.2.2h7.3c.1,0,.2-.1.2-.2v-2.4c0-.1-.1-.2-.2-.2h-4.5c0,0-.1,0-.1-.1v-4.4c0,0,0-.1.1-.1h3.9c.1,0,.2-.1.2-.2v-2.2c0-.1-.1-.2-.2-.2h-3.9c0,0-.1,0-.1-.1v-4.4c0,0,0-.1.1-.1h4.5c.1,0,.2-.1.2-.2v-2.2c0-.1-.1-.2-.2-.2M192.5,198.5c-.4-.4-.9-.8-1.4-1-.6-.2-1.3-.4-2.1-.4h-3.6c-.1,0-.2,0-.2.2v17.1c0,.1,0,.2.2.2h3.3c1.7,0,2.9-.4,3.7-1.3.8-.8,1.1-2,1.1-3.6v-1c0-.9-.1-1.7-.4-2.2-.2-.5-.6-.9-1.1-1.1.2-.1.3-.2.5-.4.2-.2.4-.4.6-.7.2-.3.3-.6.3-.9,0-.3.1-.7.1-1.2v-.6c0-.6,0-1.1-.2-1.7-.2-.5-.4-1-.8-1.5M190.8,210.3c0,.3-.1.6-.2.8-.1.2-.3.4-.6.5-.3.1-.6.2-1.1.2h-.7c0,0-.1,0-.1-.1v-4.8c0,0,0-.1.1-.1h.8c.4,0,.8,0,1,.2.2.1.4.2.6.4.1.2.2.4.3.7,0,.3,0,.7,0,1.1s0,.8,0,1.1M190.4,203.6c-.2.4-.7.5-1.5.5h-.8c0,0-.1,0-.1-.1v-4.1c0,0,0-.1.1-.1h.7c.8,0,1.3.2,1.6.5.3.4.4.9.4,1.6s-.1,1.3-.4,1.7M202.7,198.1c-.4-.4-.9-.6-1.4-.8-1-.4-2.1-.4-3.1,0-.5.2-1,.5-1.4.8-.4.4-.8.8-1,1.4-.3.6-.4,1.2-.4,1.9v9.1c0,.7.1,1.4.4,1.9.3.5.6,1,1,1.4.4.4.9.6,1.4.8.5.2,1,.3,1.5.3s1,0,1.5-.3c.5-.2,1-.5,1.4-.8.4-.4.7-.8,1-1.4.3-.5.4-1.2.4-1.9v-9.1c0-.7-.1-1.4-.4-1.9-.3-.6-.6-1-1-1.4M201.3,210.4c0,.5-.1.9-.4,1.2-.3.3-.6.4-1.1.4s-.8-.1-1.1-.4c-.3-.2-.4-.6-.4-1.2v-9.1c0-.5.1-.9.4-1.2.3-.3.6-.4,1.1-.4s.8.1,1,.4c.3.2.4.6.4,1.2v9.1ZM213.5,211.8h-4.5c0,0-.1,0-.1-.1v-14.4c0-.1-.1-.2-.2-.2h-2.4c-.1,0-.2,0-.2.2v17.1c0,.1,0,.2.2.2h7.3c.1,0,.2-.1.2-.2v-2.4c0-.1,0-.2-.2-.2M221.6,204.5h-4.8c-.2,0-.3.1-.3.3v2.3c0,.2.1.3.3.3h4.8c.2,0,.3-.1.3-.3v-2.3c0-.2-.1-.3-.3-.3M123.2,204.5h-4.8c-.2,0-.3.1-.3.3v2.3c0,.2.1.3.3.3h4.8c.2,0,.3-.1.3-.3v-2.3c0-.2-.1-.3-.3-.3"/>
  <g class="st56">
    <rect class="st54" x="158.7" y="55.5" width="22.6" height="123.6"/>
  </g>
  <g class="st26">
    <rect class="st17" x="164.7" y="62.7" width=".6" height="35.7"/>
  </g>
  <g class="st51">
    <rect class="st0" x="160.2" y="124.8" width="4.5" height="53"/>
  </g>
  <g class="st34">
    <rect class="st46" x="175.3" y="124.8" width="4.5" height="53.1"/>
  </g>
  <g class="st7">
    <rect class="st38" x="174.8" y="62.7" width=".6" height="35.7"/>
  </g>
  <g class="st29">
    <rect class="st42" x="140.9" y="60.1" width="19.6" height="118.9"/>
  </g>
  <g class="st2">
    <rect class="st49" x="141.6" y="61.7" width="17.7" height="116"/>
  </g>
  <g class="st3">
    <rect class="st35" x="150" y="60.2" width="9.5" height="118.9"/>
  </g>
  <g class="st31">
    <rect class="st22" x="121" y="69.1" width="29.8" height="110"/>
  </g>
  <g class="st13">
    <rect class="st19" x="122.8" y="71.1" width="26.6" height="106.6"/>
  </g>
  <g class="st14">
    <rect class="st8" x="133" y="71.1" width="16.8" height="108"/>
  </g>
  <g class="st21">
    <g class="st16">
      <g class="st52">
        <g class="st39">
          <rect class="st33" x="164.8" y="56.6" width="10.4" height="12"/>
        </g>
      </g>
    </g>
    <g class="st25">
      <g class="st50">
        <g class="st4">
          <rect class="st41" x="160.2" y="56.6" width="19.6" height="121.2"/>
        </g>
      </g>
    </g>
  </g>
  <g class="st6">
    <rect class="st47" x="179.4" y="60.1" width="19.6" height="118.9"/>
  </g>
  <g class="st40">
    <rect class="st24" x="180.7" y="61.7" width="17.7" height="116"/>
  </g>
  <g class="st30">
    <rect class="st48" x="180.4" y="60.2" width="9.5" height="118.9"/>
  </g>
  <g class="st1">
    <rect class="st20" x="189.3" y="69.1" width="29.8" height="110"/>
  </g>
  <g class="st9">
    <rect class="st32" x="190.6" y="71.1" width="26.6" height="106.6"/>
  </g>
  <g class="st11">
    <rect class="st37" x="190.3" y="71.1" width="16.8" height="108"/>
  </g>
  <g class="st55">
    <rect class="st12" x="162.4" y="156" width="7" height="23.1"/>
  </g>
  <g class="st18">
    <rect class="st27" x="170.6" y="155.3" width="7" height="23.8"/>
  </g>
</svg>