<?xml version="1.0" encoding="UTF-8"?>
<svg id="Layer_1" xmlns="http://www.w3.org/2000/svg" version="1.1" viewBox="0 0 340 340">
  <!-- Generator: Adobe Illustrator 30.8.0, SVG Export Plug-In . SVG Version: 2.1.4 Build 7)  -->
  <defs>
    <style>
      .st0 {
        fill: #6cc8e1;
      }

      .st1 {
        fill: #fff;
      }

      .st2 {
        fill: #6bc7e0;
      }

      .st3 {
        fill: #201b51;
      }

      .st4 {
        fill: #201b50;
      }

      .st5 {
        fill: #6fc9e2;
      }

      .st6 {
        fill: #6cc8e0;
      }

      .st7 {
        fill: #6dc7e0;
      }
    </style>
  </defs>
  <path class="st1" d="M227.6,30.9h-115.1c-13.3.7-23.8,12-23.6,25.4v229.1c0,4.3,1.4,8.4,3.6,12.1,4,6.9,11.6,12,19.9,12h115c12.2,0,23.6-11.4,23.6-24.3V54.6c0-11.9-11.5-23.7-23.4-23.7Z"/>
  <path class="st3" d="M247.5,285.7c-.7,10.7-8.9,19.3-19.4,20.3h-115.7c-10.7-.7-18.9-9.1-19.9-19.7V54.8c.1-11.3,10.1-20.4,21.1-20.4h113.8c10.9.7,19.3,9.3,20.1,20.2v231Z"/>
  <path class="st1" d="M235.1,262.7c.7,0,1,.3,1,.9v10.4c0,.5-.4,1-.9,1h-26.9s0,20,0,20c0,.7-.5,1.2-1.2,1.2h-10.2c-.3,0-1.1-.2-1.1-.7v-49.9c0-6.1,5.4-10.9,11.8-10.9h28.9c.8,0,1.4.5,1.4,1.3v10.3c0,.5-.4.8-.9.8h-28c-.5,0-.7.9-.7,1.2v13.2c0,.6.5,1,1.1,1h25.7Z"/>
  <path class="st1" d="M158.4,276v19.2c0,.7-.4,1.1-1.1,1.1h-10.1c-.6,0-1.1-.4-1.1-1.2v-59.2c0-.8.4-1.2,1.1-1.1l29.3.2c7,0,12.5,5,14.1,11.6,1.3,5.5,1.5,11.1,0,16.6-1.7,6.3-7,11.3-13.6,11.7l-17.9.2c-.4,0-.7.3-.7.9Z"/>
  <path class="st4" d="M174.4,262.6l-15,.2c-.5,0-.9-.4-.9-.9v-13.6c0-.6.4-.9,1-.9h14.8c2.8,0,5,2.3,5.3,5s.2,3.9-.1,5.9-2.3,4.4-5,4.4Z"/>
  <path class="st1" d="M141.8,284.8v10.6c0,.5-.5.9-1,.9h-27.4c-5.8,0-11.1-4.5-11.1-10.5v-49.8c0-.4.2-1.1.6-1.1h10.5c.6,0,1.1.3,1.1,1.1v44.6c0,1.5,1.3,3.2,2.9,3.2h23.5c.5,0,1,.4,1,1Z"/>
  <path class="st6" d="M108.9,185.1c4.5,2.1,9.6,2.6,14.7,1.6s10.6-6.4,12.8-12.9c1.5,1.3,2.2,3.1,3.1,4.8,2.3,4.5,3.9,9.2,5.2,14.1l1.7,6.8.8-9,6.9,5.5,11,7.8c2.6,1.8,5.7,2.8,8.8,3.2s3.9-.5,4.7-2.2.6-2.2.9-3.5c2.3,2.3,1.6,5.2.8,8.3,3.6-3.1,3.7-8.4.5-11.8s-1-1-.9-1.6c.2-1.5,1-3,1.9-4.1s2-1.5,3.3-1.4c4.4.2,8.8,0,11.3-3.8l1.7,4.1,2.3,9.5.8,8.9-.4,15.9h-87.7c-6.2,0-11.9-4.6-11.9-11.1l-.2-65.9c2.2,1.3,4.3,2.2,6.7,3-2.6-3.5-4.9-6.9-6.6-10.9v-73.3s0-8.6,0-8.6c0-1.3.8-2.3,2.1-2.5,2.9-.5,2.3-3.1,4.4-3.4s1.7-.5,2.5-1c1.8-1.1,3.2.4,4.9-.5s2-.2,2.6.8.8,2.2.9,3.5c-2-1-4.8-1.9-5-.6-.3,2.2.7,4.1.2,5.6-.4.5-1.6.5-2.2.6-.2-1.7-.4-3.4-1.5-4.7.2,3.8,1,6.5-2.4,7.9,0-2.5-.3-5-2-6.8-.6,2.7.9,6,.2,7.8l-1.8,2.1c.9.1,1.5,0,2.3-.2l-.2,2.8,2.9-3.5,3.4-3.4c1.4-1.4,3.4-1.9,5.5-2.5-2.2-.9-4-3.4-3.3-4.5s6.4,1.3,6.7,3.5c.5,3.6,0,7.1-1.4,10.4s-5.9,5.4-7.5,8l-2.2,3.5,5.1-2.9c-2.6,8.2-2.8,16.1-1.1,24.2l3.6,17.4c.6,3.1.8,6.1.7,9.3-.2,6,.7,11.9,2.5,17.6l4.8,14.5c.4,1.1,6.1,5.6,5.6,9.4-.9,6.9-6.7,11.9-13.1,13.4s-6,.6-9.5.6Z"/>
  <path class="st5" d="M204.7,77.9c-9.7,5.5-19.4,10.1-29.8,13.5s-16.9,4.6-23.2,2.3c3-.6,7.4-1.5,7.7-3.6s-.3-1.2-.8-1.6c-2.6-1.9-7.7-1.1-11.4-.5s-9,1.1-13.6.6-3.9-.8-5.6-2c-4-2.9-3.8-8.9-2.4-13.7l2.4-8.1c1-3.4,1.1-7,.4-10.5-1.9-9.7-12.2-10.8-21-8.3,6.7-6,17.2-6.4,25.1-2.6l6.8,3.8c3.6,2,7.2,3.8,11.3,4.6s11.3,1.4,17,.6,12.1-2.2,18-4l11-3c9-2.4,22.7-2.7,31.3,1.7,12,6.2,10.7,20.9,6.7,32.3-3,.8-5.3,2.1-7.9,3.9,1-2.9,1-5.4-.6-7.8-2.5-3.9-7-4.1-11.4-2.4s-6.6,2.9-10,4.8Z"/>
  <path class="st2" d="M194.5,179.3l.4,4c.5,4.6-5.8,4.6-10.6,4.3s-6.4,3.9-6.5,8.2-.6,5.1-1.8,7.4-6.7,0-8.9-1.5l-9.9-6.7-9.8-7.3c-.7-.5-.9-1.1-1.1-1.9-2.1-7.2-5.6-15-10.6-20.5l-3.4-3.7c-2.1-8.5-.8-16.9,4.8-23.7s7.5-6.7,12.1-8.7,7.4-2.5,11.4-3.6,2.8-.9,3.5-2.1,0-2.4-.3-3.6c3.2.5,5.7,2,8.2,3.9l.3-3.9c3.6,1.9,7.2,6.1,6,9.8s-4,2.5-2.1,3.9l8.3,6.1c1.2.9,1.9,2.2,1.4,3.7s2.3,3.1,4.2,4.1l5.1,2.8c.7.4,1.2,1,1.2,1.7,0,1.7-2.1,2.3-2.2,3.7s2.7,3,1.9,4.2l-1.9,2.8c-1.7,2.6-2.2,5.7-.9,8.6s3.3,3.2,3.4,4.3-2.4,2.5-2.2,3.9Z"/>
  <path class="st7" d="M228.7,149.6l2.1,24.3c.3,3.6-.5,6.9-1.9,10l-4.6,8.4c-3.6,6-7.7,11.4-12.4,16.4s-3.6,3.8-6.2,4.8c0-6.8-.3-13.2-2-19.6s-2.3-7.1-4.6-10.3c2.6-3.1,5.6-5.4,9-7.4l5.2-2.1c-2.1-1.1-4.2-1.5-6.5-2.2-.4-3-.4-6,.2-9.1l3.5-19.2c1.6-8.5,6.9-34,5.6-39.4s-2-10.6-2.1-16,.5-2.3,1.4-3.2c2.1-1.8,6.5-5.5,8-4.8s.8,5.2-2.4,8-1.5.5-2.4-.1c.5,2.1,1.1,4,2.4,5.7l3,2.4c2.6,2,3.4,6.8,4.6,9.8l2.4-1.5c2.2-1.4,7-.4,5.7,1.3l-5.8,7.5-5.8,3.5c-1.5,2.4-2.4,5.2-3.4,8.1l5.4-5.8c.8-.8,1.4-1.6,2.7-2l-.7,4.3c-1,9.4-1,18.6-.4,28.3Z"/>
  <path class="st0" d="M230.1,98.2l2.2-2.3c.4-.4.7-.8.5-1.5-1,1-2.1,1.4-3.4,1.9s-2.1-.3-1.9-1.3c.4-1.8,2.7-2.9,2.4-4.1l-2.9,1.8c-.6.4-1.4,0-1.8-.4-2.5-3.1,7.5-10.3,10.8-8.1s0,2.3,1.5,3.5.8,1.3.8,2.1l.3,4.2-.3,5.5c-1.7.9-2.1,2.5-3.3,2.7s-1.1-.1-1.2-.6c-.2-.8.2-1.5.3-2.4-.9.5-1.4,1.4-2.5,1.5s-2-1.4-1.4-2.3Z"/>
</svg>